%TF.GenerationSoftware,KiCad,Pcbnew,10.0.3*%
%TF.CreationDate,2026-07-15T18:10:54+05:30*%
%TF.ProjectId,keyboard,6b657962-6f61-4726-942e-6b696361645f,rev?*%
%TF.SameCoordinates,Original*%
%TF.FileFunction,Soldermask,Bot*%
%TF.FilePolarity,Negative*%
%FSLAX46Y46*%
G04 Gerber Fmt 4.6, Leading zero omitted, Abs format (unit mm)*
G04 Created by KiCad (PCBNEW 10.0.3) date 2026-07-15 18:10:54*
%MOMM*%
%LPD*%
G01*
G04 APERTURE LIST*
G04 Aperture macros list*
%AMRoundRect*
0 Rectangle with rounded corners*
0 $1 Rounding radius*
0 $2 $3 $4 $5 $6 $7 $8 $9 X,Y pos of 4 corners*
0 Add a 4 corners polygon primitive as box body*
4,1,4,$2,$3,$4,$5,$6,$7,$8,$9,$2,$3,0*
0 Add four circle primitives for the rounded corners*
1,1,$1+$1,$2,$3*
1,1,$1+$1,$4,$5*
1,1,$1+$1,$6,$7*
1,1,$1+$1,$8,$9*
0 Add four rect primitives between the rounded corners*
20,1,$1+$1,$2,$3,$4,$5,0*
20,1,$1+$1,$4,$5,$6,$7,0*
20,1,$1+$1,$6,$7,$8,$9,0*
20,1,$1+$1,$8,$9,$2,$3,0*%
%AMFreePoly0*
4,1,37,0.603843,0.796157,0.639018,0.796157,0.711114,0.766294,0.766294,0.711114,0.796157,0.639018,0.796157,0.603843,0.800000,0.600000,0.800000,-0.600000,0.796157,-0.603843,0.796157,-0.639018,0.766294,-0.711114,0.711114,-0.766294,0.639018,-0.796157,0.603843,-0.796157,0.600000,-0.800000,0.000000,-0.800000,0.000000,-0.796148,-0.078414,-0.796148,-0.232228,-0.765552,-0.377117,-0.705537,
-0.507515,-0.618408,-0.618408,-0.507515,-0.705537,-0.377117,-0.765552,-0.232228,-0.796148,-0.078414,-0.796148,0.078414,-0.765552,0.232228,-0.705537,0.377117,-0.618408,0.507515,-0.507515,0.618408,-0.377117,0.705537,-0.232228,0.765552,-0.078414,0.796148,0.000000,0.796148,0.000000,0.800000,0.600000,0.800000,0.603843,0.796157,0.603843,0.796157,$1*%
%AMFreePoly1*
4,1,37,0.000000,0.796148,0.078414,0.796148,0.232228,0.765552,0.377117,0.705537,0.507515,0.618408,0.618408,0.507515,0.705537,0.377117,0.765552,0.232228,0.796148,0.078414,0.796148,-0.078414,0.765552,-0.232228,0.705537,-0.377117,0.618408,-0.507515,0.507515,-0.618408,0.377117,-0.705537,0.232228,-0.765552,0.078414,-0.796148,0.000000,-0.796148,0.000000,-0.800000,-0.600000,-0.800000,
-0.603843,-0.796157,-0.639018,-0.796157,-0.711114,-0.766294,-0.766294,-0.711114,-0.796157,-0.639018,-0.796157,-0.603843,-0.800000,-0.600000,-0.800000,0.600000,-0.796157,0.603843,-0.796157,0.639018,-0.766294,0.711114,-0.711114,0.766294,-0.639018,0.796157,-0.603843,0.796157,-0.600000,0.800000,0.000000,0.800000,0.000000,0.796148,0.000000,0.796148,$1*%
G04 Aperture macros list end*
%ADD10C,1.750000*%
%ADD11C,3.987800*%
%ADD12C,2.300000*%
%ADD13C,3.048000*%
%ADD14C,1.500000*%
%ADD15R,2.000000X2.000000*%
%ADD16C,2.000000*%
%ADD17R,3.200000X2.000000*%
%ADD18RoundRect,0.200000X-0.600000X-0.600000X0.600000X-0.600000X0.600000X0.600000X-0.600000X0.600000X0*%
%ADD19C,1.600000*%
%ADD20FreePoly0,0.000000*%
%ADD21FreePoly1,0.000000*%
%ADD22RoundRect,0.250000X0.550000X-0.550000X0.550000X0.550000X-0.550000X0.550000X-0.550000X-0.550000X0*%
G04 APERTURE END LIST*
D10*
%TO.C,SW37*%
X7230000Y-50040000D03*
D11*
X12310000Y-50040000D03*
D10*
X17390000Y-50040000D03*
D12*
X8500000Y-47500000D03*
X14850000Y-44960000D03*
%TD*%
D10*
%TO.C,SW41*%
X83340000Y-50000000D03*
D11*
X88420000Y-50000000D03*
D10*
X93500000Y-50000000D03*
D12*
X84610000Y-47460000D03*
X90960000Y-44920000D03*
%TD*%
D10*
%TO.C,SW5*%
X83920000Y-12000000D03*
D11*
X89000000Y-12000000D03*
D10*
X94080000Y-12000000D03*
D12*
X85190000Y-9460000D03*
X91540000Y-6920000D03*
%TD*%
D10*
%TO.C,SW56*%
X7420000Y-69000000D03*
D11*
X12500000Y-69000000D03*
D10*
X17580000Y-69000000D03*
D12*
X8690000Y-66460000D03*
X15040000Y-63920000D03*
%TD*%
D10*
%TO.C,SW50*%
X306010000Y-51200000D03*
D11*
X311090000Y-51200000D03*
D10*
X316170000Y-51200000D03*
D12*
X307280000Y-48660000D03*
X313630000Y-46120000D03*
%TD*%
D10*
%TO.C,SW36*%
X425550000Y-31700000D03*
D11*
X430630000Y-31700000D03*
D10*
X435710000Y-31700000D03*
D12*
X426820000Y-29160000D03*
X433170000Y-26620000D03*
%TD*%
D10*
%TO.C,SW83*%
X235340000Y-88000000D03*
D11*
X240420000Y-88000000D03*
D10*
X245500000Y-88000000D03*
D12*
X236610000Y-85460000D03*
X242960000Y-82920000D03*
%TD*%
D10*
%TO.C,SW96*%
X324970000Y-108200000D03*
D11*
X330050000Y-108200000D03*
D10*
X335130000Y-108200000D03*
D12*
X326240000Y-105660000D03*
X332590000Y-103120000D03*
%TD*%
D10*
%TO.C,SW55*%
X425550000Y-60200000D03*
D11*
X430630000Y-60200000D03*
D10*
X435710000Y-60200000D03*
D12*
X426820000Y-57660000D03*
X433170000Y-55120000D03*
%TD*%
D13*
%TO.C,S3*%
X389723750Y-101215000D03*
D11*
X389723750Y-116455000D03*
D13*
X413536250Y-101215000D03*
D11*
X413536250Y-116455000D03*
%TD*%
D10*
%TO.C,SW58*%
X45380000Y-69080000D03*
D11*
X50460000Y-69080000D03*
D10*
X55540000Y-69080000D03*
D12*
X46650000Y-66540000D03*
X53000000Y-64000000D03*
%TD*%
D10*
%TO.C,SW13*%
X235840000Y-12000000D03*
D11*
X240920000Y-12000000D03*
D10*
X246000000Y-12000000D03*
D12*
X237110000Y-9460000D03*
X243460000Y-6920000D03*
%TD*%
D10*
%TO.C,SW3*%
X45500000Y-12000000D03*
D11*
X50580000Y-12000000D03*
D10*
X55660000Y-12000000D03*
D12*
X46770000Y-9460000D03*
X53120000Y-6920000D03*
%TD*%
D10*
%TO.C,SW92*%
X197460000Y-106920000D03*
D11*
X202540000Y-106920000D03*
D10*
X207620000Y-106920000D03*
D12*
X198730000Y-104380000D03*
X205080000Y-101840000D03*
%TD*%
D10*
%TO.C,SW31*%
X305970000Y-32200000D03*
D11*
X311050000Y-32200000D03*
D10*
X316130000Y-32200000D03*
D12*
X307240000Y-29660000D03*
X313590000Y-27120000D03*
%TD*%
D10*
%TO.C,SW77*%
X121380000Y-88080000D03*
D11*
X126460000Y-88080000D03*
D10*
X131540000Y-88080000D03*
D12*
X122650000Y-85540000D03*
X129000000Y-83000000D03*
%TD*%
D10*
%TO.C,SW44*%
X140340000Y-50000000D03*
D11*
X145420000Y-50000000D03*
D10*
X150500000Y-50000000D03*
D12*
X141610000Y-47460000D03*
X147960000Y-44920000D03*
%TD*%
D10*
%TO.C,SW72*%
X26340000Y-88000000D03*
D11*
X31420000Y-88000000D03*
D10*
X36500000Y-88000000D03*
D12*
X27610000Y-85460000D03*
X33960000Y-82920000D03*
%TD*%
D10*
%TO.C,SW15*%
X325050000Y-13200000D03*
D11*
X330130000Y-13200000D03*
D10*
X335210000Y-13200000D03*
D12*
X326320000Y-10660000D03*
X332670000Y-8120000D03*
%TD*%
D10*
%TO.C,SW14*%
X306050000Y-13200000D03*
D11*
X311130000Y-13200000D03*
D10*
X316210000Y-13200000D03*
D12*
X307320000Y-10660000D03*
X313670000Y-8120000D03*
%TD*%
D10*
%TO.C,SW25*%
X140340000Y-31000000D03*
D11*
X145420000Y-31000000D03*
D10*
X150500000Y-31000000D03*
D12*
X141610000Y-28460000D03*
X147960000Y-25920000D03*
%TD*%
D10*
%TO.C,SW98*%
X397970000Y-107700000D03*
D11*
X403050000Y-107700000D03*
D10*
X408130000Y-107700000D03*
D12*
X399240000Y-105160000D03*
X405590000Y-102620000D03*
%TD*%
D10*
%TO.C,SW63*%
X140340000Y-69000000D03*
D11*
X145420000Y-69000000D03*
D10*
X150500000Y-69000000D03*
D12*
X141610000Y-66460000D03*
X147960000Y-63920000D03*
%TD*%
D10*
%TO.C,SW19*%
X26340000Y-31000000D03*
D11*
X31420000Y-31000000D03*
D10*
X36500000Y-31000000D03*
D12*
X27610000Y-28460000D03*
X33960000Y-25920000D03*
%TD*%
D10*
%TO.C,SW64*%
X159420000Y-69000000D03*
D11*
X164500000Y-69000000D03*
D10*
X169580000Y-69000000D03*
D12*
X160690000Y-66460000D03*
X167040000Y-63920000D03*
%TD*%
D10*
%TO.C,SW30*%
X235380000Y-31080000D03*
D11*
X240460000Y-31080000D03*
D10*
X245540000Y-31080000D03*
D12*
X236650000Y-28540000D03*
X243000000Y-26000000D03*
%TD*%
D10*
%TO.C,SW62*%
X121380000Y-69080000D03*
D11*
X126460000Y-69080000D03*
D10*
X131540000Y-69080000D03*
D12*
X122650000Y-66540000D03*
X129000000Y-64000000D03*
%TD*%
D13*
%TO.C,S4*%
X69375000Y-100260000D03*
D11*
X69375000Y-115500000D03*
D13*
X164625000Y-100260000D03*
D11*
X164625000Y-115500000D03*
%TD*%
D10*
%TO.C,SW95*%
X305970000Y-108200000D03*
D11*
X311050000Y-108200000D03*
D10*
X316130000Y-108200000D03*
D12*
X307240000Y-105660000D03*
X313590000Y-103120000D03*
%TD*%
D10*
%TO.C,SW57*%
X26340000Y-69000000D03*
D11*
X31420000Y-69000000D03*
D10*
X36500000Y-69000000D03*
D12*
X27610000Y-66460000D03*
X33960000Y-63920000D03*
%TD*%
D10*
%TO.C,SW82*%
X216340000Y-88000000D03*
D11*
X221420000Y-88000000D03*
D10*
X226500000Y-88000000D03*
D12*
X217610000Y-85460000D03*
X223960000Y-82920000D03*
%TD*%
D10*
%TO.C,SW99*%
X425550000Y-99700000D03*
D11*
X430630000Y-99700000D03*
D10*
X435710000Y-99700000D03*
D12*
X426820000Y-97160000D03*
X433170000Y-94620000D03*
%TD*%
D10*
%TO.C,SW70*%
X406470000Y-69700000D03*
D11*
X411550000Y-69700000D03*
D10*
X416630000Y-69700000D03*
D12*
X407740000Y-67160000D03*
X414090000Y-64620000D03*
%TD*%
D10*
%TO.C,SW66*%
X197340000Y-69000000D03*
D11*
X202420000Y-69000000D03*
D10*
X207500000Y-69000000D03*
D12*
X198610000Y-66460000D03*
X204960000Y-63920000D03*
%TD*%
D10*
%TO.C,SW71*%
X7340000Y-88000000D03*
D11*
X12420000Y-88000000D03*
D10*
X17500000Y-88000000D03*
D12*
X8610000Y-85460000D03*
X14960000Y-82920000D03*
%TD*%
D13*
%TO.C,S2*%
X423645000Y-109606250D03*
D11*
X438885000Y-109606250D03*
D13*
X423645000Y-85793750D03*
D11*
X438885000Y-85793750D03*
%TD*%
D10*
%TO.C,SW29*%
X216340000Y-31000000D03*
D11*
X221420000Y-31000000D03*
D10*
X226500000Y-31000000D03*
D12*
X217610000Y-28460000D03*
X223960000Y-25920000D03*
%TD*%
D10*
%TO.C,SW54*%
X406510000Y-50780000D03*
D11*
X411590000Y-50780000D03*
D10*
X416670000Y-50780000D03*
D12*
X407780000Y-48240000D03*
X414130000Y-45700000D03*
%TD*%
D10*
%TO.C,SW11*%
X197920000Y-12000000D03*
D11*
X203000000Y-12000000D03*
D10*
X208080000Y-12000000D03*
D12*
X199190000Y-9460000D03*
X205540000Y-6920000D03*
%TD*%
D10*
%TO.C,SW79*%
X159340000Y-88000000D03*
D11*
X164420000Y-88000000D03*
D10*
X169500000Y-88000000D03*
D12*
X160610000Y-85460000D03*
X166960000Y-82920000D03*
%TD*%
D10*
%TO.C,SW6*%
X102840000Y-12000000D03*
D11*
X107920000Y-12000000D03*
D10*
X113000000Y-12000000D03*
D12*
X104110000Y-9460000D03*
X110460000Y-6920000D03*
%TD*%
D10*
%TO.C,SW40*%
X64340000Y-50000000D03*
D11*
X69420000Y-50000000D03*
D10*
X74500000Y-50000000D03*
D12*
X65610000Y-47460000D03*
X71960000Y-44920000D03*
%TD*%
D10*
%TO.C,SW45*%
X159380000Y-50000000D03*
D11*
X164460000Y-50000000D03*
D10*
X169540000Y-50000000D03*
D12*
X160650000Y-47460000D03*
X167000000Y-44920000D03*
%TD*%
D10*
%TO.C,SW27*%
X178340000Y-31000000D03*
D11*
X183420000Y-31000000D03*
D10*
X188500000Y-31000000D03*
D12*
X179610000Y-28460000D03*
X185960000Y-25920000D03*
%TD*%
D10*
%TO.C,SW34*%
X387470000Y-31700000D03*
D11*
X392550000Y-31700000D03*
D10*
X397630000Y-31700000D03*
D12*
X388740000Y-29160000D03*
X395090000Y-26620000D03*
%TD*%
D10*
%TO.C,SW91*%
X178460000Y-106920000D03*
D11*
X183540000Y-106920000D03*
D10*
X188620000Y-106920000D03*
D12*
X179730000Y-104380000D03*
X186080000Y-101840000D03*
%TD*%
D10*
%TO.C,SW87*%
X7340000Y-107000000D03*
D11*
X12420000Y-107000000D03*
D10*
X17500000Y-107000000D03*
D12*
X8610000Y-104460000D03*
X14960000Y-101920000D03*
%TD*%
D10*
%TO.C,SW49*%
X235380000Y-50080000D03*
D11*
X240460000Y-50080000D03*
D10*
X245540000Y-50080000D03*
D12*
X236650000Y-47540000D03*
X243000000Y-45000000D03*
%TD*%
D10*
%TO.C,SW86*%
X406470000Y-88700000D03*
D11*
X411550000Y-88700000D03*
D10*
X416630000Y-88700000D03*
D12*
X407740000Y-86160000D03*
X414090000Y-83620000D03*
%TD*%
D10*
%TO.C,SW23*%
X102420000Y-31000000D03*
D11*
X107500000Y-31000000D03*
D10*
X112580000Y-31000000D03*
D12*
X103690000Y-28460000D03*
X110040000Y-25920000D03*
%TD*%
D10*
%TO.C,SW18*%
X7340000Y-31000000D03*
D11*
X12420000Y-31000000D03*
D10*
X17500000Y-31000000D03*
D12*
X8610000Y-28460000D03*
X14960000Y-25920000D03*
%TD*%
D10*
%TO.C,SW39*%
X45380000Y-50080000D03*
D11*
X50460000Y-50080000D03*
D10*
X55540000Y-50080000D03*
D12*
X46650000Y-47540000D03*
X53000000Y-45000000D03*
%TD*%
D10*
%TO.C,SW65*%
X178380000Y-69080000D03*
D11*
X183460000Y-69080000D03*
D10*
X188540000Y-69080000D03*
D12*
X179650000Y-66540000D03*
X186000000Y-64000000D03*
%TD*%
D10*
%TO.C,SW32*%
X325050000Y-32200000D03*
D11*
X330130000Y-32200000D03*
D10*
X335210000Y-32200000D03*
D12*
X326320000Y-29660000D03*
X332670000Y-27120000D03*
%TD*%
D10*
%TO.C,SW9*%
X159840000Y-12000000D03*
D11*
X164920000Y-12000000D03*
D10*
X170000000Y-12000000D03*
D12*
X161110000Y-9460000D03*
X167460000Y-6920000D03*
%TD*%
D10*
%TO.C,SW69*%
X387550000Y-69700000D03*
D11*
X392630000Y-69700000D03*
D10*
X397710000Y-69700000D03*
D12*
X388820000Y-67160000D03*
X395170000Y-64620000D03*
%TD*%
D10*
%TO.C,SW94*%
X235540000Y-106920000D03*
D11*
X240620000Y-106920000D03*
D10*
X245700000Y-106920000D03*
D12*
X236810000Y-104380000D03*
X243160000Y-101840000D03*
%TD*%
D10*
%TO.C,SW89*%
X45420000Y-107000000D03*
D11*
X50500000Y-107000000D03*
D10*
X55580000Y-107000000D03*
D12*
X46690000Y-104460000D03*
X53040000Y-101920000D03*
%TD*%
D10*
%TO.C,SW51*%
X325010000Y-51280000D03*
D11*
X330090000Y-51280000D03*
D10*
X335170000Y-51280000D03*
D12*
X326280000Y-48740000D03*
X332630000Y-46200000D03*
%TD*%
D10*
%TO.C,SW16*%
X344050000Y-13200000D03*
D11*
X349130000Y-13200000D03*
D10*
X354210000Y-13200000D03*
D12*
X345320000Y-10660000D03*
X351670000Y-8120000D03*
%TD*%
D10*
%TO.C,SW67*%
X216380000Y-69080000D03*
D11*
X221460000Y-69080000D03*
D10*
X226540000Y-69080000D03*
D12*
X217650000Y-66540000D03*
X224000000Y-64000000D03*
%TD*%
D10*
%TO.C,SW52*%
X344050000Y-51280000D03*
D11*
X349130000Y-51280000D03*
D10*
X354210000Y-51280000D03*
D12*
X345320000Y-48740000D03*
X351670000Y-46200000D03*
%TD*%
D10*
%TO.C,SW59*%
X64380000Y-69080000D03*
D11*
X69460000Y-69080000D03*
D10*
X74540000Y-69080000D03*
D12*
X65650000Y-66540000D03*
X72000000Y-64000000D03*
%TD*%
D10*
%TO.C,SW35*%
X406550000Y-31700000D03*
D11*
X411630000Y-31700000D03*
D10*
X416710000Y-31700000D03*
D12*
X407820000Y-29160000D03*
X414170000Y-26620000D03*
%TD*%
D10*
%TO.C,SW24*%
X121380000Y-31080000D03*
D11*
X126460000Y-31080000D03*
D10*
X131540000Y-31080000D03*
D12*
X122650000Y-28540000D03*
X129000000Y-26000000D03*
%TD*%
D10*
%TO.C,SW33*%
X343970000Y-32200000D03*
D11*
X349050000Y-32200000D03*
D10*
X354130000Y-32200000D03*
D12*
X345240000Y-29660000D03*
X351590000Y-27120000D03*
%TD*%
D10*
%TO.C,SW20*%
X45340000Y-31000000D03*
D11*
X50420000Y-31000000D03*
D10*
X55500000Y-31000000D03*
D12*
X46610000Y-28460000D03*
X52960000Y-25920000D03*
%TD*%
D10*
%TO.C,SW78*%
X140340000Y-88000000D03*
D11*
X145420000Y-88000000D03*
D10*
X150500000Y-88000000D03*
D12*
X141610000Y-85460000D03*
X147960000Y-82920000D03*
%TD*%
D10*
%TO.C,SW74*%
X64340000Y-88000000D03*
D11*
X69420000Y-88000000D03*
D10*
X74500000Y-88000000D03*
D12*
X65610000Y-85460000D03*
X71960000Y-82920000D03*
%TD*%
D10*
%TO.C,SW7*%
X121920000Y-12000000D03*
D11*
X127000000Y-12000000D03*
D10*
X132080000Y-12000000D03*
D12*
X123190000Y-9460000D03*
X129540000Y-6920000D03*
%TD*%
D14*
%TO.C,SW17*%
X438130000Y-11700000D03*
X438130000Y-16700000D03*
D15*
X423630000Y-11700000D03*
D16*
X423630000Y-16700000D03*
X423630000Y-14200000D03*
D17*
X431130000Y-8600000D03*
X431130000Y-19800000D03*
%TD*%
D10*
%TO.C,SW60*%
X83380000Y-69080000D03*
D11*
X88460000Y-69080000D03*
D10*
X93540000Y-69080000D03*
D12*
X84650000Y-66540000D03*
X91000000Y-64000000D03*
%TD*%
D10*
%TO.C,SW38*%
X26380000Y-50080000D03*
D11*
X31460000Y-50080000D03*
D10*
X36540000Y-50080000D03*
D12*
X27650000Y-47540000D03*
X34000000Y-45000000D03*
%TD*%
D10*
%TO.C,SW93*%
X216500000Y-107000000D03*
D11*
X221580000Y-107000000D03*
D10*
X226660000Y-107000000D03*
D12*
X217770000Y-104460000D03*
X224120000Y-101920000D03*
%TD*%
D10*
%TO.C,SW4*%
X64420000Y-12000000D03*
D11*
X69500000Y-12000000D03*
D10*
X74580000Y-12000000D03*
D12*
X65690000Y-9460000D03*
X72040000Y-6920000D03*
%TD*%
D10*
%TO.C,SW42*%
X102340000Y-50000000D03*
D11*
X107420000Y-50000000D03*
D10*
X112500000Y-50000000D03*
D12*
X103610000Y-47460000D03*
X109960000Y-44920000D03*
%TD*%
D10*
%TO.C,SW61*%
X102380000Y-69080000D03*
D11*
X107460000Y-69080000D03*
D10*
X112540000Y-69080000D03*
D12*
X103650000Y-66540000D03*
X110000000Y-64000000D03*
%TD*%
D10*
%TO.C,SW46*%
X178230000Y-50040000D03*
D11*
X183310000Y-50040000D03*
D10*
X188390000Y-50040000D03*
D12*
X179500000Y-47500000D03*
X185850000Y-44960000D03*
%TD*%
D10*
%TO.C,SW28*%
X197340000Y-31000000D03*
D11*
X202420000Y-31000000D03*
D10*
X207500000Y-31000000D03*
D12*
X198610000Y-28460000D03*
X204960000Y-25920000D03*
%TD*%
D10*
%TO.C,SW2*%
X26500000Y-12000000D03*
D11*
X31580000Y-12000000D03*
D10*
X36660000Y-12000000D03*
D12*
X27770000Y-9460000D03*
X34120000Y-6920000D03*
%TD*%
D13*
%TO.C,S1*%
X423645000Y-72106250D03*
D11*
X438885000Y-72106250D03*
D13*
X423645000Y-48293750D03*
D11*
X438885000Y-48293750D03*
%TD*%
D10*
%TO.C,SW68*%
X235380000Y-69040000D03*
D11*
X240460000Y-69040000D03*
D10*
X245540000Y-69040000D03*
D12*
X236650000Y-66500000D03*
X243000000Y-63960000D03*
%TD*%
D10*
%TO.C,SW48*%
X216340000Y-50000000D03*
D11*
X221420000Y-50000000D03*
D10*
X226500000Y-50000000D03*
D12*
X217610000Y-47460000D03*
X223960000Y-44920000D03*
%TD*%
D10*
%TO.C,SW47*%
X197340000Y-50000000D03*
D11*
X202420000Y-50000000D03*
D10*
X207500000Y-50000000D03*
D12*
X198610000Y-47460000D03*
X204960000Y-44920000D03*
%TD*%
D10*
%TO.C,SW84*%
X325050000Y-89200000D03*
D11*
X330130000Y-89200000D03*
D10*
X335210000Y-89200000D03*
D12*
X326320000Y-86660000D03*
X332670000Y-84120000D03*
%TD*%
D10*
%TO.C,SW22*%
X83340000Y-31000000D03*
D11*
X88420000Y-31000000D03*
D10*
X93500000Y-31000000D03*
D12*
X84610000Y-28460000D03*
X90960000Y-25920000D03*
%TD*%
D10*
%TO.C,SW43*%
X121340000Y-50000000D03*
D11*
X126420000Y-50000000D03*
D10*
X131500000Y-50000000D03*
D12*
X122610000Y-47460000D03*
X128960000Y-44920000D03*
%TD*%
D10*
%TO.C,SW88*%
X26420000Y-107000000D03*
D11*
X31500000Y-107000000D03*
D10*
X36580000Y-107000000D03*
D12*
X27690000Y-104460000D03*
X34040000Y-101920000D03*
%TD*%
D10*
%TO.C,SW80*%
X178380000Y-88080000D03*
D11*
X183460000Y-88080000D03*
D10*
X188540000Y-88080000D03*
D12*
X179650000Y-85540000D03*
X186000000Y-83000000D03*
%TD*%
D10*
%TO.C,SW12*%
X216840000Y-12000000D03*
D11*
X221920000Y-12000000D03*
D10*
X227000000Y-12000000D03*
D12*
X218110000Y-9460000D03*
X224460000Y-6920000D03*
%TD*%
D10*
%TO.C,SW21*%
X64340000Y-31000000D03*
D11*
X69420000Y-31000000D03*
D10*
X74500000Y-31000000D03*
D12*
X65610000Y-28460000D03*
X71960000Y-25920000D03*
%TD*%
D10*
%TO.C,SW8*%
X140920000Y-12000000D03*
D11*
X146000000Y-12000000D03*
D10*
X151080000Y-12000000D03*
D12*
X142190000Y-9460000D03*
X148540000Y-6920000D03*
%TD*%
D10*
%TO.C,SW26*%
X159380000Y-31080000D03*
D11*
X164460000Y-31080000D03*
D10*
X169540000Y-31080000D03*
D12*
X160650000Y-28540000D03*
X167000000Y-26000000D03*
%TD*%
D10*
%TO.C,SW53*%
X387470000Y-50700000D03*
D11*
X392550000Y-50700000D03*
D10*
X397630000Y-50700000D03*
D12*
X388740000Y-48160000D03*
X395090000Y-45620000D03*
%TD*%
D10*
%TO.C,SW81*%
X197380000Y-88080000D03*
D11*
X202460000Y-88080000D03*
D10*
X207540000Y-88080000D03*
D12*
X198650000Y-85540000D03*
X205000000Y-83000000D03*
%TD*%
D10*
%TO.C,SW75*%
X83380000Y-88000000D03*
D11*
X88460000Y-88000000D03*
D10*
X93540000Y-88000000D03*
D12*
X84650000Y-85460000D03*
X91000000Y-82920000D03*
%TD*%
D10*
%TO.C,SW76*%
X102340000Y-88080000D03*
D11*
X107420000Y-88080000D03*
D10*
X112500000Y-88080000D03*
D12*
X103610000Y-85540000D03*
X109960000Y-83000000D03*
%TD*%
D10*
%TO.C,SW85*%
X387470000Y-88700000D03*
D11*
X392550000Y-88700000D03*
D10*
X397630000Y-88700000D03*
D12*
X388740000Y-86160000D03*
X395090000Y-83620000D03*
%TD*%
D10*
%TO.C,SW10*%
X178840000Y-12000000D03*
D11*
X183920000Y-12000000D03*
D10*
X189000000Y-12000000D03*
D12*
X180110000Y-9460000D03*
X186460000Y-6920000D03*
%TD*%
D10*
%TO.C,SW73*%
X45420000Y-88000000D03*
D11*
X50500000Y-88000000D03*
D10*
X55580000Y-88000000D03*
D12*
X46690000Y-85460000D03*
X53040000Y-82920000D03*
%TD*%
D18*
%TO.C,A1*%
X264500000Y1320000D03*
D19*
X264500000Y-1220000D03*
D20*
X264500000Y-3760000D03*
D19*
X264500000Y-6300000D03*
X264500000Y-8840000D03*
X264500000Y-11380000D03*
X264500000Y-13920000D03*
D20*
X264500000Y-16460000D03*
D19*
X264500000Y-19000000D03*
X264500000Y-21540000D03*
X264500000Y-24080000D03*
X264500000Y-26620000D03*
D20*
X264500000Y-29160000D03*
D19*
X264500000Y-31700000D03*
X264500000Y-34240000D03*
X264500000Y-36780000D03*
X264500000Y-39320000D03*
D20*
X264500000Y-41860000D03*
D19*
X264500000Y-44400000D03*
X264500000Y-46940000D03*
X282280000Y-46940000D03*
X282280000Y-44400000D03*
D21*
X282280000Y-41860000D03*
D19*
X282280000Y-39320000D03*
X282280000Y-36780000D03*
X282280000Y-34240000D03*
X282280000Y-31700000D03*
D21*
X282280000Y-29160000D03*
D19*
X282280000Y-26620000D03*
X282280000Y-24080000D03*
X282280000Y-21540000D03*
X282280000Y-19000000D03*
D21*
X282280000Y-16460000D03*
D19*
X282280000Y-13920000D03*
X282280000Y-11380000D03*
X282280000Y-8840000D03*
X282280000Y-6300000D03*
D21*
X282280000Y-3760000D03*
D19*
X282280000Y-1220000D03*
X282280000Y1320000D03*
%TD*%
D10*
%TO.C,SW97*%
X344050000Y-108200000D03*
D11*
X349130000Y-108200000D03*
D10*
X354210000Y-108200000D03*
D12*
X345320000Y-105660000D03*
X351670000Y-103120000D03*
%TD*%
D10*
%TO.C,SW1*%
X7420000Y-12000000D03*
D11*
X12500000Y-12000000D03*
D10*
X17580000Y-12000000D03*
D12*
X8690000Y-9460000D03*
X15040000Y-6920000D03*
%TD*%
D10*
%TO.C,SW90*%
X110340000Y-107000000D03*
D11*
X115420000Y-107000000D03*
D10*
X120500000Y-107000000D03*
D12*
X111610000Y-104460000D03*
X117960000Y-101920000D03*
%TD*%
D22*
%TO.C,D82*%
X245500000Y-92000000D03*
D19*
X245500000Y-84380000D03*
%TD*%
D22*
%TO.C,D86*%
X17500000Y-111000000D03*
D19*
X17500000Y-103380000D03*
%TD*%
D22*
%TO.C,D19*%
X55500000Y-35000000D03*
D19*
X55500000Y-27380000D03*
%TD*%
D22*
%TO.C,D34*%
X416710000Y-35700000D03*
D19*
X416710000Y-28080000D03*
%TD*%
D22*
%TO.C,D80*%
X207540000Y-92080000D03*
D19*
X207540000Y-84460000D03*
%TD*%
D22*
%TO.C,D98*%
X435710000Y-103700000D03*
D19*
X435710000Y-96080000D03*
%TD*%
D22*
%TO.C,D39*%
X74500000Y-54000000D03*
D19*
X74500000Y-46380000D03*
%TD*%
D22*
%TO.C,D55*%
X17580000Y-73000000D03*
D19*
X17580000Y-65380000D03*
%TD*%
D22*
%TO.C,D65*%
X207500000Y-73000000D03*
D19*
X207500000Y-65380000D03*
%TD*%
D22*
%TO.C,D61*%
X131540000Y-73080000D03*
D19*
X131540000Y-65460000D03*
%TD*%
D22*
%TO.C,D94*%
X316130000Y-112200000D03*
D19*
X316130000Y-104580000D03*
%TD*%
D22*
%TO.C,D38*%
X55540000Y-54080000D03*
D19*
X55540000Y-46460000D03*
%TD*%
D22*
%TO.C,D8*%
X151080000Y-16000000D03*
D19*
X151080000Y-8380000D03*
%TD*%
D22*
%TO.C,D71*%
X36500000Y-92000000D03*
D19*
X36500000Y-84380000D03*
%TD*%
D22*
%TO.C,D44*%
X169540000Y-54000000D03*
D19*
X169540000Y-46380000D03*
%TD*%
D22*
%TO.C,D49*%
X316170000Y-55200000D03*
D19*
X316170000Y-47580000D03*
%TD*%
D22*
%TO.C,D16*%
X354210000Y-17200000D03*
D19*
X354210000Y-9580000D03*
%TD*%
D22*
%TO.C,D75*%
X112500000Y-92080000D03*
D19*
X112500000Y-84460000D03*
%TD*%
D22*
%TO.C,D17*%
X17500000Y-35000000D03*
D19*
X17500000Y-27380000D03*
%TD*%
D22*
%TO.C,D46*%
X207500000Y-54000000D03*
D19*
X207500000Y-46380000D03*
%TD*%
D22*
%TO.C,D32*%
X354130000Y-36200000D03*
D19*
X354130000Y-28580000D03*
%TD*%
D22*
%TO.C,D73*%
X74500000Y-92000000D03*
D19*
X74500000Y-84380000D03*
%TD*%
D22*
%TO.C,D15*%
X335210000Y-17200000D03*
D19*
X335210000Y-9580000D03*
%TD*%
D22*
%TO.C,D13*%
X246000000Y-16000000D03*
D19*
X246000000Y-8380000D03*
%TD*%
D22*
%TO.C,D25*%
X169540000Y-35080000D03*
D19*
X169540000Y-27460000D03*
%TD*%
D22*
%TO.C,D40*%
X93500000Y-54000000D03*
D19*
X93500000Y-46380000D03*
%TD*%
D22*
%TO.C,D70*%
X17500000Y-92000000D03*
D19*
X17500000Y-84380000D03*
%TD*%
D22*
%TO.C,D68*%
X397710000Y-73700000D03*
D19*
X397710000Y-66080000D03*
%TD*%
D22*
%TO.C,D43*%
X150500000Y-54000000D03*
D19*
X150500000Y-46380000D03*
%TD*%
D22*
%TO.C,D76*%
X131540000Y-92080000D03*
D19*
X131540000Y-84460000D03*
%TD*%
D22*
%TO.C,D2*%
X36660000Y-16000000D03*
D19*
X36660000Y-8380000D03*
%TD*%
D22*
%TO.C,D56*%
X36500000Y-73000000D03*
D19*
X36500000Y-65380000D03*
%TD*%
D22*
%TO.C,D37*%
X36540000Y-54080000D03*
D19*
X36540000Y-46460000D03*
%TD*%
D22*
%TO.C,D48*%
X245540000Y-54080000D03*
D19*
X245540000Y-46460000D03*
%TD*%
D22*
%TO.C,D51*%
X354210000Y-55280000D03*
D19*
X354210000Y-47660000D03*
%TD*%
D22*
%TO.C,D87*%
X36580000Y-111000000D03*
D19*
X36580000Y-103380000D03*
%TD*%
D22*
%TO.C,D59*%
X93540000Y-73080000D03*
D19*
X93540000Y-65460000D03*
%TD*%
D22*
%TO.C,D4*%
X74580000Y-16000000D03*
D19*
X74580000Y-8380000D03*
%TD*%
D22*
%TO.C,D88*%
X55580000Y-111000000D03*
D19*
X55580000Y-103380000D03*
%TD*%
D22*
%TO.C,D24*%
X150500000Y-35000000D03*
D19*
X150500000Y-27380000D03*
%TD*%
D22*
%TO.C,D54*%
X435710000Y-64200000D03*
D19*
X435710000Y-56580000D03*
%TD*%
D22*
%TO.C,D90*%
X188620000Y-110920000D03*
D19*
X188620000Y-103300000D03*
%TD*%
D22*
%TO.C,D96*%
X354210000Y-112200000D03*
D19*
X354210000Y-104580000D03*
%TD*%
D22*
%TO.C,D97*%
X408130000Y-111700000D03*
D19*
X408130000Y-104080000D03*
%TD*%
D22*
%TO.C,D21*%
X93500000Y-35000000D03*
D19*
X93500000Y-27380000D03*
%TD*%
D22*
%TO.C,D60*%
X112540000Y-73080000D03*
D19*
X112540000Y-65460000D03*
%TD*%
D22*
%TO.C,D33*%
X397630000Y-35700000D03*
D19*
X397630000Y-28080000D03*
%TD*%
D22*
%TO.C,D42*%
X131500000Y-54000000D03*
D19*
X131500000Y-46380000D03*
%TD*%
D22*
%TO.C,D3*%
X55660000Y-16000000D03*
D19*
X55660000Y-8380000D03*
%TD*%
D22*
%TO.C,D72*%
X55580000Y-92000000D03*
D19*
X55580000Y-84380000D03*
%TD*%
D22*
%TO.C,D52*%
X397630000Y-54700000D03*
D19*
X397630000Y-47080000D03*
%TD*%
D22*
%TO.C,D63*%
X169580000Y-73000000D03*
D19*
X169580000Y-65380000D03*
%TD*%
D22*
%TO.C,D10*%
X189000000Y-16000000D03*
D19*
X189000000Y-8380000D03*
%TD*%
D22*
%TO.C,D36*%
X17390000Y-54040000D03*
D19*
X17390000Y-46420000D03*
%TD*%
D22*
%TO.C,D95*%
X335130000Y-112200000D03*
D19*
X335130000Y-104580000D03*
%TD*%
D22*
%TO.C,D29*%
X245540000Y-35080000D03*
D19*
X245540000Y-27460000D03*
%TD*%
D22*
%TO.C,D27*%
X207500000Y-35000000D03*
D19*
X207500000Y-27380000D03*
%TD*%
D22*
%TO.C,D57*%
X55540000Y-73080000D03*
D19*
X55540000Y-65460000D03*
%TD*%
D22*
%TO.C,D9*%
X170000000Y-16000000D03*
D19*
X170000000Y-8380000D03*
%TD*%
D22*
%TO.C,D22*%
X112580000Y-35000000D03*
D19*
X112580000Y-27380000D03*
%TD*%
D22*
%TO.C,D67*%
X245540000Y-73040000D03*
D19*
X245540000Y-65420000D03*
%TD*%
D22*
%TO.C,D64*%
X188540000Y-73080000D03*
D19*
X188540000Y-65460000D03*
%TD*%
D22*
%TO.C,D81*%
X226500000Y-92000000D03*
D19*
X226500000Y-84380000D03*
%TD*%
D22*
%TO.C,D50*%
X335170000Y-55280000D03*
D19*
X335170000Y-47660000D03*
%TD*%
D22*
%TO.C,D58*%
X74540000Y-73080000D03*
D19*
X74540000Y-65460000D03*
%TD*%
D22*
%TO.C,D69*%
X416630000Y-73700000D03*
D19*
X416630000Y-66080000D03*
%TD*%
D22*
%TO.C,D26*%
X188500000Y-35000000D03*
D19*
X188500000Y-27380000D03*
%TD*%
D22*
%TO.C,D85*%
X416630000Y-92700000D03*
D19*
X416630000Y-85080000D03*
%TD*%
D22*
%TO.C,D7*%
X132080000Y-16000000D03*
D19*
X132080000Y-8380000D03*
%TD*%
D22*
%TO.C,D35*%
X435710000Y-35700000D03*
D19*
X435710000Y-28080000D03*
%TD*%
D22*
%TO.C,D41*%
X112500000Y-54000000D03*
D19*
X112500000Y-46380000D03*
%TD*%
D22*
%TO.C,D12*%
X227000000Y-16000000D03*
D19*
X227000000Y-8380000D03*
%TD*%
D22*
%TO.C,D83*%
X335210000Y-93200000D03*
D19*
X335210000Y-85580000D03*
%TD*%
D22*
%TO.C,D1*%
X17580000Y-16000000D03*
D19*
X17580000Y-8380000D03*
%TD*%
D22*
%TO.C,D28*%
X226500000Y-35000000D03*
D19*
X226500000Y-27380000D03*
%TD*%
D22*
%TO.C,D79*%
X188540000Y-92080000D03*
D19*
X188540000Y-84460000D03*
%TD*%
D22*
%TO.C,D53*%
X416670000Y-54780000D03*
D19*
X416670000Y-47160000D03*
%TD*%
D22*
%TO.C,D23*%
X131540000Y-35080000D03*
D19*
X131540000Y-27460000D03*
%TD*%
D22*
%TO.C,D11*%
X208080000Y-16000000D03*
D19*
X208080000Y-8380000D03*
%TD*%
D22*
%TO.C,D84*%
X397630000Y-92700000D03*
D19*
X397630000Y-85080000D03*
%TD*%
D22*
%TO.C,D78*%
X169500000Y-92000000D03*
D19*
X169500000Y-84380000D03*
%TD*%
D22*
%TO.C,D74*%
X93540000Y-92000000D03*
D19*
X93540000Y-84380000D03*
%TD*%
D22*
%TO.C,D47*%
X226500000Y-54000000D03*
D19*
X226500000Y-46380000D03*
%TD*%
D22*
%TO.C,D20*%
X74500000Y-35000000D03*
D19*
X74500000Y-27380000D03*
%TD*%
D22*
%TO.C,D5*%
X94080000Y-16000000D03*
D19*
X94080000Y-8380000D03*
%TD*%
D22*
%TO.C,D89*%
X120500000Y-111000000D03*
D19*
X120500000Y-103380000D03*
%TD*%
D22*
%TO.C,D30*%
X316130000Y-36200000D03*
D19*
X316130000Y-28580000D03*
%TD*%
D22*
%TO.C,D14*%
X316210000Y-17200000D03*
D19*
X316210000Y-9580000D03*
%TD*%
D22*
%TO.C,D18*%
X36500000Y-35000000D03*
D19*
X36500000Y-27380000D03*
%TD*%
D22*
%TO.C,D92*%
X226660000Y-111000000D03*
D19*
X226660000Y-103380000D03*
%TD*%
D22*
%TO.C,D77*%
X150500000Y-92000000D03*
D19*
X150500000Y-84380000D03*
%TD*%
D22*
%TO.C,D31*%
X335210000Y-36200000D03*
D19*
X335210000Y-28580000D03*
%TD*%
D22*
%TO.C,D45*%
X188390000Y-54040000D03*
D19*
X188390000Y-46420000D03*
%TD*%
D22*
%TO.C,D62*%
X150500000Y-73000000D03*
D19*
X150500000Y-65380000D03*
%TD*%
D22*
%TO.C,D66*%
X226540000Y-73080000D03*
D19*
X226540000Y-65460000D03*
%TD*%
D22*
%TO.C,D93*%
X245700000Y-110920000D03*
D19*
X245700000Y-103300000D03*
%TD*%
D22*
%TO.C,D6*%
X113000000Y-16000000D03*
D19*
X113000000Y-8380000D03*
%TD*%
D22*
%TO.C,D91*%
X207620000Y-110920000D03*
D19*
X207620000Y-103300000D03*
%TD*%
M02*
