%TF.GenerationSoftware,KiCad,Pcbnew,10.0.3*%
%TF.CreationDate,2026-07-15T18:10:54+05:30*%
%TF.ProjectId,keyboard,6b657962-6f61-4726-942e-6b696361645f,rev?*%
%TF.SameCoordinates,Original*%
%TF.FileFunction,Copper,L2,Bot*%
%TF.FilePolarity,Positive*%
%FSLAX46Y46*%
G04 Gerber Fmt 4.6, Leading zero omitted, Abs format (unit mm)*
G04 Created by KiCad (PCBNEW 10.0.3) date 2026-07-15 18:10:54*
%MOMM*%
%LPD*%
G01*
G04 APERTURE LIST*
G04 Aperture macros list*
%AMRoundRect*
0 Rectangle with rounded corners*
0 $1 Rounding radius*
0 $2 $3 $4 $5 $6 $7 $8 $9 X,Y pos of 4 corners*
0 Add a 4 corners polygon primitive as box body*
4,1,4,$2,$3,$4,$5,$6,$7,$8,$9,$2,$3,0*
0 Add four circle primitives for the rounded corners*
1,1,$1+$1,$2,$3*
1,1,$1+$1,$4,$5*
1,1,$1+$1,$6,$7*
1,1,$1+$1,$8,$9*
0 Add four rect primitives between the rounded corners*
20,1,$1+$1,$2,$3,$4,$5,0*
20,1,$1+$1,$4,$5,$6,$7,0*
20,1,$1+$1,$6,$7,$8,$9,0*
20,1,$1+$1,$8,$9,$2,$3,0*%
%AMFreePoly0*
4,1,37,0.603843,0.796157,0.639018,0.796157,0.711114,0.766294,0.766294,0.711114,0.796157,0.639018,0.796157,0.603843,0.800000,0.600000,0.800000,-0.600000,0.796157,-0.603843,0.796157,-0.639018,0.766294,-0.711114,0.711114,-0.766294,0.639018,-0.796157,0.603843,-0.796157,0.600000,-0.800000,0.000000,-0.800000,0.000000,-0.796148,-0.078414,-0.796148,-0.232228,-0.765552,-0.377117,-0.705537,
-0.507515,-0.618408,-0.618408,-0.507515,-0.705537,-0.377117,-0.765552,-0.232228,-0.796148,-0.078414,-0.796148,0.078414,-0.765552,0.232228,-0.705537,0.377117,-0.618408,0.507515,-0.507515,0.618408,-0.377117,0.705537,-0.232228,0.765552,-0.078414,0.796148,0.000000,0.796148,0.000000,0.800000,0.600000,0.800000,0.603843,0.796157,0.603843,0.796157,$1*%
%AMFreePoly1*
4,1,37,0.000000,0.796148,0.078414,0.796148,0.232228,0.765552,0.377117,0.705537,0.507515,0.618408,0.618408,0.507515,0.705537,0.377117,0.765552,0.232228,0.796148,0.078414,0.796148,-0.078414,0.765552,-0.232228,0.705537,-0.377117,0.618408,-0.507515,0.507515,-0.618408,0.377117,-0.705537,0.232228,-0.765552,0.078414,-0.796148,0.000000,-0.796148,0.000000,-0.800000,-0.600000,-0.800000,
-0.603843,-0.796157,-0.639018,-0.796157,-0.711114,-0.766294,-0.766294,-0.711114,-0.796157,-0.639018,-0.796157,-0.603843,-0.800000,-0.600000,-0.800000,0.600000,-0.796157,0.603843,-0.796157,0.639018,-0.766294,0.711114,-0.711114,0.766294,-0.639018,0.796157,-0.603843,0.796157,-0.600000,0.800000,0.000000,0.800000,0.000000,0.796148,0.000000,0.796148,$1*%
G04 Aperture macros list end*
%TA.AperFunction,ComponentPad*%
%ADD10C,2.300000*%
%TD*%
%TA.AperFunction,ComponentPad*%
%ADD11C,1.500000*%
%TD*%
%TA.AperFunction,ComponentPad*%
%ADD12R,2.000000X2.000000*%
%TD*%
%TA.AperFunction,ComponentPad*%
%ADD13C,2.000000*%
%TD*%
%TA.AperFunction,ComponentPad*%
%ADD14R,3.200000X2.000000*%
%TD*%
%TA.AperFunction,ComponentPad*%
%ADD15RoundRect,0.200000X-0.600000X-0.600000X0.600000X-0.600000X0.600000X0.600000X-0.600000X0.600000X0*%
%TD*%
%TA.AperFunction,ComponentPad*%
%ADD16C,1.600000*%
%TD*%
%TA.AperFunction,ComponentPad*%
%ADD17FreePoly0,0.000000*%
%TD*%
%TA.AperFunction,ComponentPad*%
%ADD18FreePoly1,0.000000*%
%TD*%
%TA.AperFunction,ComponentPad*%
%ADD19RoundRect,0.250000X0.550000X-0.550000X0.550000X0.550000X-0.550000X0.550000X-0.550000X-0.550000X0*%
%TD*%
%TA.AperFunction,ViaPad*%
%ADD20C,0.500000*%
%TD*%
%TA.AperFunction,ViaPad*%
%ADD21C,0.250000*%
%TD*%
%TA.AperFunction,ViaPad*%
%ADD22C,0.600000*%
%TD*%
%TA.AperFunction,Conductor*%
%ADD23C,0.300000*%
%TD*%
%TA.AperFunction,Conductor*%
%ADD24C,0.200000*%
%TD*%
G04 APERTURE END LIST*
D10*
%TO.P,SW37,1,1_1*%
%TO.N,/COL0*%
X8500000Y-47500000D03*
%TO.P,SW37,2,2_2*%
%TO.N,Net-(D36-A)*%
X14850000Y-44960000D03*
%TD*%
%TO.P,SW41,1,1_1*%
%TO.N,/COL5*%
X84610000Y-47460000D03*
%TO.P,SW41,2,2_2*%
%TO.N,Net-(D40-A)*%
X90960000Y-44920000D03*
%TD*%
%TO.P,SW5,1,1_1*%
%TO.N,/COL5*%
X85190000Y-9460000D03*
%TO.P,SW5,2,2_2*%
%TO.N,Net-(D5-A)*%
X91540000Y-6920000D03*
%TD*%
%TO.P,SW56,1,1_1*%
%TO.N,/COL0*%
X8690000Y-66460000D03*
%TO.P,SW56,2,2_2*%
%TO.N,Net-(D55-A)*%
X15040000Y-63920000D03*
%TD*%
%TO.P,SW50,1,1_1*%
%TO.N,/COL14*%
X307280000Y-48660000D03*
%TO.P,SW50,2,2_2*%
%TO.N,Net-(D49-A)*%
X313630000Y-46120000D03*
%TD*%
%TO.P,SW36,1,1_1*%
%TO.N,/COL19*%
X426820000Y-29160000D03*
%TO.P,SW36,2,2_2*%
%TO.N,Net-(D35-A)*%
X433170000Y-26620000D03*
%TD*%
%TO.P,SW83,1,1_1*%
%TO.N,/COL13*%
X236610000Y-85460000D03*
%TO.P,SW83,2,2_2*%
%TO.N,Net-(D82-A)*%
X242960000Y-82920000D03*
%TD*%
%TO.P,SW96,1,1_1*%
%TO.N,/COL15*%
X326240000Y-105660000D03*
%TO.P,SW96,2,2_2*%
%TO.N,Net-(D95-A)*%
X332590000Y-103120000D03*
%TD*%
%TO.P,SW55,1,1_1*%
%TO.N,/COL19*%
X426820000Y-57660000D03*
%TO.P,SW55,2,2_2*%
%TO.N,Net-(D54-A)*%
X433170000Y-55120000D03*
%TD*%
%TO.P,SW58,1,1_1*%
%TO.N,/COL3*%
X46650000Y-66540000D03*
%TO.P,SW58,2,2_2*%
%TO.N,Net-(D57-A)*%
X53000000Y-64000000D03*
%TD*%
%TO.P,SW13,1,1_1*%
%TO.N,/COL13*%
X237110000Y-9460000D03*
%TO.P,SW13,2,2_2*%
%TO.N,Net-(D13-A)*%
X243460000Y-6920000D03*
%TD*%
%TO.P,SW3,1,1_1*%
%TO.N,/COL3*%
X46770000Y-9460000D03*
%TO.P,SW3,2,2_2*%
%TO.N,Net-(D3-A)*%
X53120000Y-6920000D03*
%TD*%
%TO.P,SW92,1,1_1*%
%TO.N,/COL11*%
X198730000Y-104380000D03*
%TO.P,SW92,2,2_2*%
%TO.N,Net-(D91-A)*%
X205080000Y-101840000D03*
%TD*%
%TO.P,SW31,1,1_1*%
%TO.N,/COL14*%
X307240000Y-29660000D03*
%TO.P,SW31,2,2_2*%
%TO.N,Net-(D30-A)*%
X313590000Y-27120000D03*
%TD*%
%TO.P,SW77,1,1_1*%
%TO.N,/COL7*%
X122650000Y-85540000D03*
%TO.P,SW77,2,2_2*%
%TO.N,Net-(D76-A)*%
X129000000Y-83000000D03*
%TD*%
%TO.P,SW44,1,1_1*%
%TO.N,/COL8*%
X141610000Y-47460000D03*
%TO.P,SW44,2,2_2*%
%TO.N,Net-(D43-A)*%
X147960000Y-44920000D03*
%TD*%
%TO.P,SW72,1,1_1*%
%TO.N,/COL1*%
X27610000Y-85460000D03*
%TO.P,SW72,2,2_2*%
%TO.N,Net-(D71-A)*%
X33960000Y-82920000D03*
%TD*%
%TO.P,SW15,1,1_1*%
%TO.N,/COL15*%
X326320000Y-10660000D03*
%TO.P,SW15,2,2_2*%
%TO.N,Net-(D15-A)*%
X332670000Y-8120000D03*
%TD*%
%TO.P,SW14,1,1_1*%
%TO.N,/COL14*%
X307320000Y-10660000D03*
%TO.P,SW14,2,2_2*%
%TO.N,Net-(D14-A)*%
X313670000Y-8120000D03*
%TD*%
%TO.P,SW25,1,1_1*%
%TO.N,/COL8*%
X141610000Y-28460000D03*
%TO.P,SW25,2,2_2*%
%TO.N,Net-(D24-A)*%
X147960000Y-25920000D03*
%TD*%
%TO.P,SW98,1,1_1*%
%TO.N,/COL17*%
X399240000Y-105160000D03*
%TO.P,SW98,2,2_2*%
%TO.N,Net-(D97-A)*%
X405590000Y-102620000D03*
%TD*%
%TO.P,SW63,1,1_1*%
%TO.N,/COL8*%
X141610000Y-66460000D03*
%TO.P,SW63,2,2_2*%
%TO.N,Net-(D62-A)*%
X147960000Y-63920000D03*
%TD*%
%TO.P,SW19,1,1_1*%
%TO.N,/COL1*%
X27610000Y-28460000D03*
%TO.P,SW19,2,2_2*%
%TO.N,Net-(D18-A)*%
X33960000Y-25920000D03*
%TD*%
%TO.P,SW64,1,1_1*%
%TO.N,/COL9*%
X160690000Y-66460000D03*
%TO.P,SW64,2,2_2*%
%TO.N,Net-(D63-A)*%
X167040000Y-63920000D03*
%TD*%
%TO.P,SW30,1,1_1*%
%TO.N,/COL13*%
X236650000Y-28540000D03*
%TO.P,SW30,2,2_2*%
%TO.N,Net-(D29-A)*%
X243000000Y-26000000D03*
%TD*%
%TO.P,SW62,1,1_1*%
%TO.N,/COL7*%
X122650000Y-66540000D03*
%TO.P,SW62,2,2_2*%
%TO.N,Net-(D61-A)*%
X129000000Y-64000000D03*
%TD*%
%TO.P,SW95,1,1_1*%
%TO.N,/COL14*%
X307240000Y-105660000D03*
%TO.P,SW95,2,2_2*%
%TO.N,Net-(D94-A)*%
X313590000Y-103120000D03*
%TD*%
%TO.P,SW57,1,1_1*%
%TO.N,/COL1*%
X27610000Y-66460000D03*
%TO.P,SW57,2,2_2*%
%TO.N,Net-(D56-A)*%
X33960000Y-63920000D03*
%TD*%
%TO.P,SW82,1,1_1*%
%TO.N,/COL12*%
X217610000Y-85460000D03*
%TO.P,SW82,2,2_2*%
%TO.N,Net-(D81-A)*%
X223960000Y-82920000D03*
%TD*%
%TO.P,SW99,1,1_1*%
%TO.N,/COL19*%
X426820000Y-97160000D03*
%TO.P,SW99,2,2_2*%
%TO.N,Net-(D98-A)*%
X433170000Y-94620000D03*
%TD*%
%TO.P,SW70,1,1_1*%
%TO.N,/COL18*%
X407740000Y-67160000D03*
%TO.P,SW70,2,2_2*%
%TO.N,Net-(D69-A)*%
X414090000Y-64620000D03*
%TD*%
%TO.P,SW66,1,1_1*%
%TO.N,/COL11*%
X198610000Y-66460000D03*
%TO.P,SW66,2,2_2*%
%TO.N,Net-(D65-A)*%
X204960000Y-63920000D03*
%TD*%
%TO.P,SW71,1,1_1*%
%TO.N,/COL0*%
X8610000Y-85460000D03*
%TO.P,SW71,2,2_2*%
%TO.N,Net-(D70-A)*%
X14960000Y-82920000D03*
%TD*%
%TO.P,SW29,1,1_1*%
%TO.N,/COL12*%
X217610000Y-28460000D03*
%TO.P,SW29,2,2_2*%
%TO.N,Net-(D28-A)*%
X223960000Y-25920000D03*
%TD*%
%TO.P,SW54,1,1_1*%
%TO.N,/COL18*%
X407780000Y-48240000D03*
%TO.P,SW54,2,2_2*%
%TO.N,Net-(D53-A)*%
X414130000Y-45700000D03*
%TD*%
%TO.P,SW11,1,1_1*%
%TO.N,/COL11*%
X199190000Y-9460000D03*
%TO.P,SW11,2,2_2*%
%TO.N,Net-(D11-A)*%
X205540000Y-6920000D03*
%TD*%
%TO.P,SW79,1,1_1*%
%TO.N,/COL9*%
X160610000Y-85460000D03*
%TO.P,SW79,2,2_2*%
%TO.N,Net-(D78-A)*%
X166960000Y-82920000D03*
%TD*%
%TO.P,SW6,1,1_1*%
%TO.N,/COL6*%
X104110000Y-9460000D03*
%TO.P,SW6,2,2_2*%
%TO.N,Net-(D6-A)*%
X110460000Y-6920000D03*
%TD*%
%TO.P,SW40,1,1_1*%
%TO.N,/COL4*%
X65610000Y-47460000D03*
%TO.P,SW40,2,2_2*%
%TO.N,Net-(D39-A)*%
X71960000Y-44920000D03*
%TD*%
%TO.P,SW45,1,1_1*%
%TO.N,/COL9*%
X160650000Y-47460000D03*
%TO.P,SW45,2,2_2*%
%TO.N,Net-(D44-A)*%
X167000000Y-44920000D03*
%TD*%
%TO.P,SW27,1,1_1*%
%TO.N,/COL10*%
X179610000Y-28460000D03*
%TO.P,SW27,2,2_2*%
%TO.N,Net-(D26-A)*%
X185960000Y-25920000D03*
%TD*%
%TO.P,SW34,1,1_1*%
%TO.N,/COL17*%
X388740000Y-29160000D03*
%TO.P,SW34,2,2_2*%
%TO.N,Net-(D33-A)*%
X395090000Y-26620000D03*
%TD*%
%TO.P,SW91,1,1_1*%
%TO.N,/COL10*%
X179730000Y-104380000D03*
%TO.P,SW91,2,2_2*%
%TO.N,Net-(D90-A)*%
X186080000Y-101840000D03*
%TD*%
%TO.P,SW87,1,1_1*%
%TO.N,/COL0*%
X8610000Y-104460000D03*
%TO.P,SW87,2,2_2*%
%TO.N,Net-(D86-A)*%
X14960000Y-101920000D03*
%TD*%
%TO.P,SW49,1,1_1*%
%TO.N,/COL13*%
X236650000Y-47540000D03*
%TO.P,SW49,2,2_2*%
%TO.N,Net-(D48-A)*%
X243000000Y-45000000D03*
%TD*%
%TO.P,SW86,1,1_1*%
%TO.N,/COL18*%
X407740000Y-86160000D03*
%TO.P,SW86,2,2_2*%
%TO.N,Net-(D85-A)*%
X414090000Y-83620000D03*
%TD*%
%TO.P,SW23,1,1_1*%
%TO.N,/COL6*%
X103690000Y-28460000D03*
%TO.P,SW23,2,2_2*%
%TO.N,Net-(D22-A)*%
X110040000Y-25920000D03*
%TD*%
%TO.P,SW18,1,1_1*%
%TO.N,/COL0*%
X8610000Y-28460000D03*
%TO.P,SW18,2,2_2*%
%TO.N,Net-(D17-A)*%
X14960000Y-25920000D03*
%TD*%
%TO.P,SW39,1,1_1*%
%TO.N,/COL3*%
X46650000Y-47540000D03*
%TO.P,SW39,2,2_2*%
%TO.N,Net-(D38-A)*%
X53000000Y-45000000D03*
%TD*%
%TO.P,SW65,1,1_1*%
%TO.N,/COL10*%
X179650000Y-66540000D03*
%TO.P,SW65,2,2_2*%
%TO.N,Net-(D64-A)*%
X186000000Y-64000000D03*
%TD*%
%TO.P,SW32,1,1_1*%
%TO.N,/COL15*%
X326320000Y-29660000D03*
%TO.P,SW32,2,2_2*%
%TO.N,Net-(D31-A)*%
X332670000Y-27120000D03*
%TD*%
%TO.P,SW9,1,1_1*%
%TO.N,/COL9*%
X161110000Y-9460000D03*
%TO.P,SW9,2,2_2*%
%TO.N,Net-(D9-A)*%
X167460000Y-6920000D03*
%TD*%
%TO.P,SW69,1,1_1*%
%TO.N,/COL17*%
X388820000Y-67160000D03*
%TO.P,SW69,2,2_2*%
%TO.N,Net-(D68-A)*%
X395170000Y-64620000D03*
%TD*%
%TO.P,SW94,1,1_1*%
%TO.N,/COL13*%
X236810000Y-104380000D03*
%TO.P,SW94,2,2_2*%
%TO.N,Net-(D93-A)*%
X243160000Y-101840000D03*
%TD*%
%TO.P,SW89,1,1_1*%
%TO.N,/COL3*%
X46690000Y-104460000D03*
%TO.P,SW89,2,2_2*%
%TO.N,Net-(D88-A)*%
X53040000Y-101920000D03*
%TD*%
%TO.P,SW51,1,1_1*%
%TO.N,/COL15*%
X326280000Y-48740000D03*
%TO.P,SW51,2,2_2*%
%TO.N,Net-(D50-A)*%
X332630000Y-46200000D03*
%TD*%
%TO.P,SW16,1,1_1*%
%TO.N,/COL16*%
X345320000Y-10660000D03*
%TO.P,SW16,2,2_2*%
%TO.N,Net-(D16-A)*%
X351670000Y-8120000D03*
%TD*%
%TO.P,SW67,1,1_1*%
%TO.N,/COL12*%
X217650000Y-66540000D03*
%TO.P,SW67,2,2_2*%
%TO.N,Net-(D66-A)*%
X224000000Y-64000000D03*
%TD*%
%TO.P,SW52,1,1_1*%
%TO.N,/COL16*%
X345320000Y-48740000D03*
%TO.P,SW52,2,2_2*%
%TO.N,Net-(D51-A)*%
X351670000Y-46200000D03*
%TD*%
%TO.P,SW59,1,1_1*%
%TO.N,/COL4*%
X65650000Y-66540000D03*
%TO.P,SW59,2,2_2*%
%TO.N,Net-(D58-A)*%
X72000000Y-64000000D03*
%TD*%
%TO.P,SW35,1,1_1*%
%TO.N,/COL18*%
X407820000Y-29160000D03*
%TO.P,SW35,2,2_2*%
%TO.N,Net-(D34-A)*%
X414170000Y-26620000D03*
%TD*%
%TO.P,SW24,1,1_1*%
%TO.N,/COL7*%
X122650000Y-28540000D03*
%TO.P,SW24,2,2_2*%
%TO.N,Net-(D23-A)*%
X129000000Y-26000000D03*
%TD*%
%TO.P,SW33,1,1_1*%
%TO.N,/COL16*%
X345240000Y-29660000D03*
%TO.P,SW33,2,2_2*%
%TO.N,Net-(D32-A)*%
X351590000Y-27120000D03*
%TD*%
%TO.P,SW20,1,1_1*%
%TO.N,/COL3*%
X46610000Y-28460000D03*
%TO.P,SW20,2,2_2*%
%TO.N,Net-(D19-A)*%
X52960000Y-25920000D03*
%TD*%
%TO.P,SW78,1,1_1*%
%TO.N,/COL8*%
X141610000Y-85460000D03*
%TO.P,SW78,2,2_2*%
%TO.N,Net-(D77-A)*%
X147960000Y-82920000D03*
%TD*%
%TO.P,SW74,1,1_1*%
%TO.N,/COL4*%
X65610000Y-85460000D03*
%TO.P,SW74,2,2_2*%
%TO.N,Net-(D73-A)*%
X71960000Y-82920000D03*
%TD*%
%TO.P,SW7,1,1_1*%
%TO.N,/COL7*%
X123190000Y-9460000D03*
%TO.P,SW7,2,2_2*%
%TO.N,Net-(D7-A)*%
X129540000Y-6920000D03*
%TD*%
D11*
%TO.P,SW17,*%
%TO.N,*%
X438130000Y-11700000D03*
X438130000Y-16700000D03*
D12*
%TO.P,SW17,A,A_A*%
%TO.N,/GP5*%
X423630000Y-11700000D03*
D13*
%TO.P,SW17,B,B_B*%
%TO.N,/GP6*%
X423630000Y-16700000D03*
%TO.P,SW17,C,C_C*%
%TO.N,GND*%
X423630000Y-14200000D03*
D14*
%TO.P,SW17,MP*%
%TO.N,N/C*%
X431130000Y-8600000D03*
X431130000Y-19800000D03*
%TD*%
D10*
%TO.P,SW60,1,1_1*%
%TO.N,/COL5*%
X84650000Y-66540000D03*
%TO.P,SW60,2,2_2*%
%TO.N,Net-(D59-A)*%
X91000000Y-64000000D03*
%TD*%
%TO.P,SW38,1,1_1*%
%TO.N,/COL1*%
X27650000Y-47540000D03*
%TO.P,SW38,2,2_2*%
%TO.N,Net-(D37-A)*%
X34000000Y-45000000D03*
%TD*%
%TO.P,SW93,1,1_1*%
%TO.N,/COL12*%
X217770000Y-104460000D03*
%TO.P,SW93,2,2_2*%
%TO.N,Net-(D92-A)*%
X224120000Y-101920000D03*
%TD*%
%TO.P,SW4,1,1_1*%
%TO.N,/COL4*%
X65690000Y-9460000D03*
%TO.P,SW4,2,2_2*%
%TO.N,Net-(D4-A)*%
X72040000Y-6920000D03*
%TD*%
%TO.P,SW42,1,1_1*%
%TO.N,/COL6*%
X103610000Y-47460000D03*
%TO.P,SW42,2,2_2*%
%TO.N,Net-(D41-A)*%
X109960000Y-44920000D03*
%TD*%
%TO.P,SW61,1,1_1*%
%TO.N,/COL6*%
X103650000Y-66540000D03*
%TO.P,SW61,2,2_2*%
%TO.N,Net-(D60-A)*%
X110000000Y-64000000D03*
%TD*%
%TO.P,SW46,1,1_1*%
%TO.N,/COL10*%
X179500000Y-47500000D03*
%TO.P,SW46,2,2_2*%
%TO.N,Net-(D45-A)*%
X185850000Y-44960000D03*
%TD*%
%TO.P,SW28,1,1_1*%
%TO.N,/COL11*%
X198610000Y-28460000D03*
%TO.P,SW28,2,2_2*%
%TO.N,Net-(D27-A)*%
X204960000Y-25920000D03*
%TD*%
%TO.P,SW2,1,1_1*%
%TO.N,/COL1*%
X27770000Y-9460000D03*
%TO.P,SW2,2,2_2*%
%TO.N,Net-(D2-A)*%
X34120000Y-6920000D03*
%TD*%
%TO.P,SW68,1,1_1*%
%TO.N,/COL13*%
X236650000Y-66500000D03*
%TO.P,SW68,2,2_2*%
%TO.N,Net-(D67-A)*%
X243000000Y-63960000D03*
%TD*%
%TO.P,SW48,1,1_1*%
%TO.N,/COL12*%
X217610000Y-47460000D03*
%TO.P,SW48,2,2_2*%
%TO.N,Net-(D47-A)*%
X223960000Y-44920000D03*
%TD*%
%TO.P,SW47,1,1_1*%
%TO.N,/COL11*%
X198610000Y-47460000D03*
%TO.P,SW47,2,2_2*%
%TO.N,Net-(D46-A)*%
X204960000Y-44920000D03*
%TD*%
%TO.P,SW84,1,1_1*%
%TO.N,/COL15*%
X326320000Y-86660000D03*
%TO.P,SW84,2,2_2*%
%TO.N,Net-(D83-A)*%
X332670000Y-84120000D03*
%TD*%
%TO.P,SW22,1,1_1*%
%TO.N,/COL5*%
X84610000Y-28460000D03*
%TO.P,SW22,2,2_2*%
%TO.N,Net-(D21-A)*%
X90960000Y-25920000D03*
%TD*%
%TO.P,SW43,1,1_1*%
%TO.N,/COL7*%
X122610000Y-47460000D03*
%TO.P,SW43,2,2_2*%
%TO.N,Net-(D42-A)*%
X128960000Y-44920000D03*
%TD*%
%TO.P,SW88,1,1_1*%
%TO.N,/COL1*%
X27690000Y-104460000D03*
%TO.P,SW88,2,2_2*%
%TO.N,Net-(D87-A)*%
X34040000Y-101920000D03*
%TD*%
%TO.P,SW80,1,1_1*%
%TO.N,/COL10*%
X179650000Y-85540000D03*
%TO.P,SW80,2,2_2*%
%TO.N,Net-(D79-A)*%
X186000000Y-83000000D03*
%TD*%
%TO.P,SW12,1,1_1*%
%TO.N,/COL12*%
X218110000Y-9460000D03*
%TO.P,SW12,2,2_2*%
%TO.N,Net-(D12-A)*%
X224460000Y-6920000D03*
%TD*%
%TO.P,SW21,1,1_1*%
%TO.N,/COL4*%
X65610000Y-28460000D03*
%TO.P,SW21,2,2_2*%
%TO.N,Net-(D20-A)*%
X71960000Y-25920000D03*
%TD*%
%TO.P,SW8,1,1_1*%
%TO.N,/COL8*%
X142190000Y-9460000D03*
%TO.P,SW8,2,2_2*%
%TO.N,Net-(D8-A)*%
X148540000Y-6920000D03*
%TD*%
%TO.P,SW26,1,1_1*%
%TO.N,/COL9*%
X160650000Y-28540000D03*
%TO.P,SW26,2,2_2*%
%TO.N,Net-(D25-A)*%
X167000000Y-26000000D03*
%TD*%
%TO.P,SW53,1,1_1*%
%TO.N,/COL17*%
X388740000Y-48160000D03*
%TO.P,SW53,2,2_2*%
%TO.N,Net-(D52-A)*%
X395090000Y-45620000D03*
%TD*%
%TO.P,SW81,1,1_1*%
%TO.N,/COL11*%
X198650000Y-85540000D03*
%TO.P,SW81,2,2_2*%
%TO.N,Net-(D80-A)*%
X205000000Y-83000000D03*
%TD*%
%TO.P,SW75,1,1_1*%
%TO.N,/COL5*%
X84650000Y-85460000D03*
%TO.P,SW75,2,2_2*%
%TO.N,Net-(D74-A)*%
X91000000Y-82920000D03*
%TD*%
%TO.P,SW76,1,1_1*%
%TO.N,/COL6*%
X103610000Y-85540000D03*
%TO.P,SW76,2,2_2*%
%TO.N,Net-(D75-A)*%
X109960000Y-83000000D03*
%TD*%
%TO.P,SW85,1,1_1*%
%TO.N,/COL17*%
X388740000Y-86160000D03*
%TO.P,SW85,2,2_2*%
%TO.N,Net-(D84-A)*%
X395090000Y-83620000D03*
%TD*%
%TO.P,SW10,1,1_1*%
%TO.N,/COL10*%
X180110000Y-9460000D03*
%TO.P,SW10,2,2_2*%
%TO.N,Net-(D10-A)*%
X186460000Y-6920000D03*
%TD*%
%TO.P,SW73,1,1_1*%
%TO.N,/COL3*%
X46690000Y-85460000D03*
%TO.P,SW73,2,2_2*%
%TO.N,Net-(D72-A)*%
X53040000Y-82920000D03*
%TD*%
D15*
%TO.P,A1,1,GPIO0_1*%
%TO.N,/ROW0*%
X264500000Y1320000D03*
D16*
%TO.P,A1,2,GPIO1_2*%
%TO.N,/ROW1*%
X264500000Y-1220000D03*
D17*
%TO.P,A1,3,GND_3*%
%TO.N,Net-(U1-VSS)*%
X264500000Y-3760000D03*
D16*
%TO.P,A1,4,GPIO2_4*%
%TO.N,/ROW2*%
X264500000Y-6300000D03*
%TO.P,A1,5,GPIO3_5*%
%TO.N,/ROW3*%
X264500000Y-8840000D03*
%TO.P,A1,6,GPIO4_6*%
%TO.N,/ROW4*%
X264500000Y-11380000D03*
%TO.P,A1,7,GPIO5_7*%
%TO.N,/ROW5*%
X264500000Y-13920000D03*
D17*
%TO.P,A1,8,GND_8*%
%TO.N,Net-(U1-VSS)*%
X264500000Y-16460000D03*
D16*
%TO.P,A1,9,GPIO6_9*%
%TO.N,/COL0*%
X264500000Y-19000000D03*
%TO.P,A1,10,GPIO7_10*%
%TO.N,/COL1*%
X264500000Y-21540000D03*
%TO.P,A1,11,GPIO8_11*%
%TO.N,unconnected-(A1-GPIO8-Pad11)*%
X264500000Y-24080000D03*
%TO.P,A1,12,GPIO9_12*%
%TO.N,/COL3*%
X264500000Y-26620000D03*
D17*
%TO.P,A1,13,GND_13*%
%TO.N,Net-(U1-VSS)*%
X264500000Y-29160000D03*
D16*
%TO.P,A1,14,GPIO10_14*%
%TO.N,/COL4*%
X264500000Y-31700000D03*
%TO.P,A1,15,GPIO11_15*%
%TO.N,/COL5*%
X264500000Y-34240000D03*
%TO.P,A1,16,GPIO12_16*%
%TO.N,/COL6*%
X264500000Y-36780000D03*
%TO.P,A1,17,GPIO13_17*%
%TO.N,/COL7*%
X264500000Y-39320000D03*
D17*
%TO.P,A1,18,GND_18*%
%TO.N,Net-(U1-VSS)*%
X264500000Y-41860000D03*
D16*
%TO.P,A1,19,GPIO14_19*%
%TO.N,/COL8*%
X264500000Y-44400000D03*
%TO.P,A1,20,GPIO15_20*%
%TO.N,/COL9*%
X264500000Y-46940000D03*
%TO.P,A1,21,GPIO16_21*%
%TO.N,/COL10*%
X282280000Y-46940000D03*
%TO.P,A1,22,GPIO17_22*%
%TO.N,/COL11*%
X282280000Y-44400000D03*
D18*
%TO.P,A1,23,GND_23*%
%TO.N,Net-(U1-VSS)*%
X282280000Y-41860000D03*
D16*
%TO.P,A1,24,GPIO18_24*%
%TO.N,/COL12*%
X282280000Y-39320000D03*
%TO.P,A1,25,GPIO19_25*%
%TO.N,/COL13*%
X282280000Y-36780000D03*
%TO.P,A1,26,GPIO20_26*%
%TO.N,/COL14*%
X282280000Y-34240000D03*
%TO.P,A1,27,GPIO21_27*%
%TO.N,Net-(A1-GPIO21)*%
X282280000Y-31700000D03*
D18*
%TO.P,A1,28,GND_28*%
%TO.N,Net-(U1-VSS)*%
X282280000Y-29160000D03*
D16*
%TO.P,A1,29,GPIO22_29*%
%TO.N,Net-(A1-GPIO22)*%
X282280000Y-26620000D03*
%TO.P,A1,30,RUN_30*%
%TO.N,unconnected-(A1-RUN-Pad30)*%
X282280000Y-24080000D03*
%TO.P,A1,31,GPIO26_ADC0_31*%
%TO.N,unconnected-(A1-GPIO26_ADC0-Pad31)*%
X282280000Y-21540000D03*
%TO.P,A1,32,GPIO27_ADC1_32*%
%TO.N,unconnected-(A1-GPIO27_ADC1-Pad32)*%
X282280000Y-19000000D03*
D18*
%TO.P,A1,33,AGND_33*%
%TO.N,unconnected-(A1-AGND-Pad33)*%
X282280000Y-16460000D03*
D16*
%TO.P,A1,34,GPIO28_ADC2_34*%
%TO.N,unconnected-(A1-GPIO28_ADC2-Pad34)*%
X282280000Y-13920000D03*
%TO.P,A1,35,ADC_VREF_35*%
%TO.N,unconnected-(A1-ADC_VREF-Pad35)*%
X282280000Y-11380000D03*
%TO.P,A1,36,3V3_36*%
%TO.N,Net-(A1-3V3)*%
X282280000Y-8840000D03*
%TO.P,A1,37,3V3_EN_37*%
%TO.N,unconnected-(A1-3V3_EN-Pad37)*%
X282280000Y-6300000D03*
D18*
%TO.P,A1,38,GND_38*%
%TO.N,Net-(U1-VSS)*%
X282280000Y-3760000D03*
D16*
%TO.P,A1,39,VSYS_39*%
%TO.N,unconnected-(A1-VSYS-Pad39)*%
X282280000Y-1220000D03*
%TO.P,A1,40,VBUS_40*%
%TO.N,unconnected-(A1-VBUS-Pad40)*%
X282280000Y1320000D03*
%TD*%
D10*
%TO.P,SW97,1,1_1*%
%TO.N,/COL16*%
X345320000Y-105660000D03*
%TO.P,SW97,2,2_2*%
%TO.N,Net-(D96-A)*%
X351670000Y-103120000D03*
%TD*%
%TO.P,SW1,1,1_1*%
%TO.N,/COL0*%
X8690000Y-9460000D03*
%TO.P,SW1,2,2_2*%
%TO.N,Net-(D1-A)*%
X15040000Y-6920000D03*
%TD*%
%TO.P,SW90,1,1_1*%
%TO.N,/COL4*%
X111610000Y-104460000D03*
%TO.P,SW90,2,2_2*%
%TO.N,Net-(D89-A)*%
X117960000Y-101920000D03*
%TD*%
D19*
%TO.P,D82,1,K_1*%
%TO.N,/ROW4*%
X245500000Y-92000000D03*
D16*
%TO.P,D82,2,A_2*%
%TO.N,Net-(D82-A)*%
X245500000Y-84380000D03*
%TD*%
D19*
%TO.P,D86,1,K_1*%
%TO.N,/ROW5*%
X17500000Y-111000000D03*
D16*
%TO.P,D86,2,A_2*%
%TO.N,Net-(D86-A)*%
X17500000Y-103380000D03*
%TD*%
D19*
%TO.P,D19,1,K_1*%
%TO.N,/ROW1*%
X55500000Y-35000000D03*
D16*
%TO.P,D19,2,A_2*%
%TO.N,Net-(D19-A)*%
X55500000Y-27380000D03*
%TD*%
D19*
%TO.P,D34,1,K_1*%
%TO.N,/ROW1*%
X416710000Y-35700000D03*
D16*
%TO.P,D34,2,A_2*%
%TO.N,Net-(D34-A)*%
X416710000Y-28080000D03*
%TD*%
D19*
%TO.P,D80,1,K_1*%
%TO.N,/ROW4*%
X207540000Y-92080000D03*
D16*
%TO.P,D80,2,A_2*%
%TO.N,Net-(D80-A)*%
X207540000Y-84460000D03*
%TD*%
D19*
%TO.P,D98,1,K_1*%
%TO.N,/ROW5*%
X435710000Y-103700000D03*
D16*
%TO.P,D98,2,A_2*%
%TO.N,Net-(D98-A)*%
X435710000Y-96080000D03*
%TD*%
D19*
%TO.P,D39,1,K_1*%
%TO.N,/ROW2*%
X74500000Y-54000000D03*
D16*
%TO.P,D39,2,A_2*%
%TO.N,Net-(D39-A)*%
X74500000Y-46380000D03*
%TD*%
D19*
%TO.P,D55,1,K_1*%
%TO.N,/ROW3*%
X17580000Y-73000000D03*
D16*
%TO.P,D55,2,A_2*%
%TO.N,Net-(D55-A)*%
X17580000Y-65380000D03*
%TD*%
D19*
%TO.P,D65,1,K_1*%
%TO.N,/ROW3*%
X207500000Y-73000000D03*
D16*
%TO.P,D65,2,A_2*%
%TO.N,Net-(D65-A)*%
X207500000Y-65380000D03*
%TD*%
D19*
%TO.P,D61,1,K_1*%
%TO.N,/ROW3*%
X131540000Y-73080000D03*
D16*
%TO.P,D61,2,A_2*%
%TO.N,Net-(D61-A)*%
X131540000Y-65460000D03*
%TD*%
D19*
%TO.P,D94,1,K_1*%
%TO.N,/ROW5*%
X316130000Y-112200000D03*
D16*
%TO.P,D94,2,A_2*%
%TO.N,Net-(D94-A)*%
X316130000Y-104580000D03*
%TD*%
D19*
%TO.P,D38,1,K_1*%
%TO.N,/ROW2*%
X55540000Y-54080000D03*
D16*
%TO.P,D38,2,A_2*%
%TO.N,Net-(D38-A)*%
X55540000Y-46460000D03*
%TD*%
D19*
%TO.P,D8,1,K_1*%
%TO.N,/ROW0*%
X151080000Y-16000000D03*
D16*
%TO.P,D8,2,A_2*%
%TO.N,Net-(D8-A)*%
X151080000Y-8380000D03*
%TD*%
D19*
%TO.P,D71,1,K_1*%
%TO.N,/ROW4*%
X36500000Y-92000000D03*
D16*
%TO.P,D71,2,A_2*%
%TO.N,Net-(D71-A)*%
X36500000Y-84380000D03*
%TD*%
D19*
%TO.P,D44,1,K_1*%
%TO.N,/ROW2*%
X169540000Y-54000000D03*
D16*
%TO.P,D44,2,A_2*%
%TO.N,Net-(D44-A)*%
X169540000Y-46380000D03*
%TD*%
D19*
%TO.P,D49,1,K_1*%
%TO.N,/ROW2*%
X316170000Y-55200000D03*
D16*
%TO.P,D49,2,A_2*%
%TO.N,Net-(D49-A)*%
X316170000Y-47580000D03*
%TD*%
D19*
%TO.P,D16,1,K_1*%
%TO.N,/ROW0*%
X354210000Y-17200000D03*
D16*
%TO.P,D16,2,A_2*%
%TO.N,Net-(D16-A)*%
X354210000Y-9580000D03*
%TD*%
D19*
%TO.P,D75,1,K_1*%
%TO.N,/ROW4*%
X112500000Y-92080000D03*
D16*
%TO.P,D75,2,A_2*%
%TO.N,Net-(D75-A)*%
X112500000Y-84460000D03*
%TD*%
D19*
%TO.P,D17,1,K_1*%
%TO.N,/ROW1*%
X17500000Y-35000000D03*
D16*
%TO.P,D17,2,A_2*%
%TO.N,Net-(D17-A)*%
X17500000Y-27380000D03*
%TD*%
D19*
%TO.P,D46,1,K_1*%
%TO.N,/ROW2*%
X207500000Y-54000000D03*
D16*
%TO.P,D46,2,A_2*%
%TO.N,Net-(D46-A)*%
X207500000Y-46380000D03*
%TD*%
D19*
%TO.P,D32,1,K_1*%
%TO.N,/ROW1*%
X354130000Y-36200000D03*
D16*
%TO.P,D32,2,A_2*%
%TO.N,Net-(D32-A)*%
X354130000Y-28580000D03*
%TD*%
D19*
%TO.P,D73,1,K_1*%
%TO.N,/ROW4*%
X74500000Y-92000000D03*
D16*
%TO.P,D73,2,A_2*%
%TO.N,Net-(D73-A)*%
X74500000Y-84380000D03*
%TD*%
D19*
%TO.P,D15,1,K_1*%
%TO.N,/ROW0*%
X335210000Y-17200000D03*
D16*
%TO.P,D15,2,A_2*%
%TO.N,Net-(D15-A)*%
X335210000Y-9580000D03*
%TD*%
D19*
%TO.P,D13,1,K_1*%
%TO.N,/ROW0*%
X246000000Y-16000000D03*
D16*
%TO.P,D13,2,A_2*%
%TO.N,Net-(D13-A)*%
X246000000Y-8380000D03*
%TD*%
D19*
%TO.P,D25,1,K_1*%
%TO.N,/ROW1*%
X169540000Y-35080000D03*
D16*
%TO.P,D25,2,A_2*%
%TO.N,Net-(D25-A)*%
X169540000Y-27460000D03*
%TD*%
D19*
%TO.P,D40,1,K_1*%
%TO.N,/ROW2*%
X93500000Y-54000000D03*
D16*
%TO.P,D40,2,A_2*%
%TO.N,Net-(D40-A)*%
X93500000Y-46380000D03*
%TD*%
D19*
%TO.P,D70,1,K_1*%
%TO.N,/ROW4*%
X17500000Y-92000000D03*
D16*
%TO.P,D70,2,A_2*%
%TO.N,Net-(D70-A)*%
X17500000Y-84380000D03*
%TD*%
D19*
%TO.P,D68,1,K_1*%
%TO.N,/ROW3*%
X397710000Y-73700000D03*
D16*
%TO.P,D68,2,A_2*%
%TO.N,Net-(D68-A)*%
X397710000Y-66080000D03*
%TD*%
D19*
%TO.P,D43,1,K_1*%
%TO.N,/ROW2*%
X150500000Y-54000000D03*
D16*
%TO.P,D43,2,A_2*%
%TO.N,Net-(D43-A)*%
X150500000Y-46380000D03*
%TD*%
D19*
%TO.P,D76,1,K_1*%
%TO.N,/ROW4*%
X131540000Y-92080000D03*
D16*
%TO.P,D76,2,A_2*%
%TO.N,Net-(D76-A)*%
X131540000Y-84460000D03*
%TD*%
D19*
%TO.P,D2,1,K_1*%
%TO.N,/ROW0*%
X36660000Y-16000000D03*
D16*
%TO.P,D2,2,A_2*%
%TO.N,Net-(D2-A)*%
X36660000Y-8380000D03*
%TD*%
D19*
%TO.P,D56,1,K_1*%
%TO.N,/ROW3*%
X36500000Y-73000000D03*
D16*
%TO.P,D56,2,A_2*%
%TO.N,Net-(D56-A)*%
X36500000Y-65380000D03*
%TD*%
D19*
%TO.P,D37,1,K_1*%
%TO.N,/ROW2*%
X36540000Y-54080000D03*
D16*
%TO.P,D37,2,A_2*%
%TO.N,Net-(D37-A)*%
X36540000Y-46460000D03*
%TD*%
D19*
%TO.P,D48,1,K_1*%
%TO.N,/ROW2*%
X245540000Y-54080000D03*
D16*
%TO.P,D48,2,A_2*%
%TO.N,Net-(D48-A)*%
X245540000Y-46460000D03*
%TD*%
D19*
%TO.P,D51,1,K_1*%
%TO.N,/ROW2*%
X354210000Y-55280000D03*
D16*
%TO.P,D51,2,A_2*%
%TO.N,Net-(D51-A)*%
X354210000Y-47660000D03*
%TD*%
D19*
%TO.P,D87,1,K_1*%
%TO.N,/ROW5*%
X36580000Y-111000000D03*
D16*
%TO.P,D87,2,A_2*%
%TO.N,Net-(D87-A)*%
X36580000Y-103380000D03*
%TD*%
D19*
%TO.P,D59,1,K_1*%
%TO.N,/ROW3*%
X93540000Y-73080000D03*
D16*
%TO.P,D59,2,A_2*%
%TO.N,Net-(D59-A)*%
X93540000Y-65460000D03*
%TD*%
D19*
%TO.P,D4,1,K_1*%
%TO.N,/ROW0*%
X74580000Y-16000000D03*
D16*
%TO.P,D4,2,A_2*%
%TO.N,Net-(D4-A)*%
X74580000Y-8380000D03*
%TD*%
D19*
%TO.P,D88,1,K_1*%
%TO.N,/ROW5*%
X55580000Y-111000000D03*
D16*
%TO.P,D88,2,A_2*%
%TO.N,Net-(D88-A)*%
X55580000Y-103380000D03*
%TD*%
D19*
%TO.P,D24,1,K_1*%
%TO.N,/ROW1*%
X150500000Y-35000000D03*
D16*
%TO.P,D24,2,A_2*%
%TO.N,Net-(D24-A)*%
X150500000Y-27380000D03*
%TD*%
D19*
%TO.P,D54,1,K_1*%
%TO.N,/ROW2*%
X435710000Y-64200000D03*
D16*
%TO.P,D54,2,A_2*%
%TO.N,Net-(D54-A)*%
X435710000Y-56580000D03*
%TD*%
D19*
%TO.P,D90,1,K_1*%
%TO.N,/ROW5*%
X188620000Y-110920000D03*
D16*
%TO.P,D90,2,A_2*%
%TO.N,Net-(D90-A)*%
X188620000Y-103300000D03*
%TD*%
D19*
%TO.P,D96,1,K_1*%
%TO.N,/ROW5*%
X354210000Y-112200000D03*
D16*
%TO.P,D96,2,A_2*%
%TO.N,Net-(D96-A)*%
X354210000Y-104580000D03*
%TD*%
D19*
%TO.P,D97,1,K_1*%
%TO.N,/ROW5*%
X408130000Y-111700000D03*
D16*
%TO.P,D97,2,A_2*%
%TO.N,Net-(D97-A)*%
X408130000Y-104080000D03*
%TD*%
D19*
%TO.P,D21,1,K_1*%
%TO.N,/ROW1*%
X93500000Y-35000000D03*
D16*
%TO.P,D21,2,A_2*%
%TO.N,Net-(D21-A)*%
X93500000Y-27380000D03*
%TD*%
D19*
%TO.P,D60,1,K_1*%
%TO.N,/ROW3*%
X112540000Y-73080000D03*
D16*
%TO.P,D60,2,A_2*%
%TO.N,Net-(D60-A)*%
X112540000Y-65460000D03*
%TD*%
D19*
%TO.P,D33,1,K_1*%
%TO.N,/ROW1*%
X397630000Y-35700000D03*
D16*
%TO.P,D33,2,A_2*%
%TO.N,Net-(D33-A)*%
X397630000Y-28080000D03*
%TD*%
D19*
%TO.P,D42,1,K_1*%
%TO.N,/ROW2*%
X131500000Y-54000000D03*
D16*
%TO.P,D42,2,A_2*%
%TO.N,Net-(D42-A)*%
X131500000Y-46380000D03*
%TD*%
D19*
%TO.P,D3,1,K_1*%
%TO.N,/ROW0*%
X55660000Y-16000000D03*
D16*
%TO.P,D3,2,A_2*%
%TO.N,Net-(D3-A)*%
X55660000Y-8380000D03*
%TD*%
D19*
%TO.P,D72,1,K_1*%
%TO.N,/ROW4*%
X55580000Y-92000000D03*
D16*
%TO.P,D72,2,A_2*%
%TO.N,Net-(D72-A)*%
X55580000Y-84380000D03*
%TD*%
D19*
%TO.P,D52,1,K_1*%
%TO.N,/ROW2*%
X397630000Y-54700000D03*
D16*
%TO.P,D52,2,A_2*%
%TO.N,Net-(D52-A)*%
X397630000Y-47080000D03*
%TD*%
D19*
%TO.P,D63,1,K_1*%
%TO.N,/ROW3*%
X169580000Y-73000000D03*
D16*
%TO.P,D63,2,A_2*%
%TO.N,Net-(D63-A)*%
X169580000Y-65380000D03*
%TD*%
D19*
%TO.P,D10,1,K_1*%
%TO.N,/ROW0*%
X189000000Y-16000000D03*
D16*
%TO.P,D10,2,A_2*%
%TO.N,Net-(D10-A)*%
X189000000Y-8380000D03*
%TD*%
D19*
%TO.P,D36,1,K_1*%
%TO.N,/ROW2*%
X17390000Y-54040000D03*
D16*
%TO.P,D36,2,A_2*%
%TO.N,Net-(D36-A)*%
X17390000Y-46420000D03*
%TD*%
D19*
%TO.P,D95,1,K_1*%
%TO.N,/ROW5*%
X335130000Y-112200000D03*
D16*
%TO.P,D95,2,A_2*%
%TO.N,Net-(D95-A)*%
X335130000Y-104580000D03*
%TD*%
D19*
%TO.P,D29,1,K_1*%
%TO.N,/ROW1*%
X245540000Y-35080000D03*
D16*
%TO.P,D29,2,A_2*%
%TO.N,Net-(D29-A)*%
X245540000Y-27460000D03*
%TD*%
D19*
%TO.P,D27,1,K_1*%
%TO.N,/ROW1*%
X207500000Y-35000000D03*
D16*
%TO.P,D27,2,A_2*%
%TO.N,Net-(D27-A)*%
X207500000Y-27380000D03*
%TD*%
D19*
%TO.P,D57,1,K_1*%
%TO.N,/ROW3*%
X55540000Y-73080000D03*
D16*
%TO.P,D57,2,A_2*%
%TO.N,Net-(D57-A)*%
X55540000Y-65460000D03*
%TD*%
D19*
%TO.P,D9,1,K_1*%
%TO.N,/ROW0*%
X170000000Y-16000000D03*
D16*
%TO.P,D9,2,A_2*%
%TO.N,Net-(D9-A)*%
X170000000Y-8380000D03*
%TD*%
D19*
%TO.P,D22,1,K_1*%
%TO.N,/ROW1*%
X112580000Y-35000000D03*
D16*
%TO.P,D22,2,A_2*%
%TO.N,Net-(D22-A)*%
X112580000Y-27380000D03*
%TD*%
D19*
%TO.P,D67,1,K_1*%
%TO.N,/ROW3*%
X245540000Y-73040000D03*
D16*
%TO.P,D67,2,A_2*%
%TO.N,Net-(D67-A)*%
X245540000Y-65420000D03*
%TD*%
D19*
%TO.P,D64,1,K_1*%
%TO.N,/ROW3*%
X188540000Y-73080000D03*
D16*
%TO.P,D64,2,A_2*%
%TO.N,Net-(D64-A)*%
X188540000Y-65460000D03*
%TD*%
D19*
%TO.P,D81,1,K_1*%
%TO.N,/ROW4*%
X226500000Y-92000000D03*
D16*
%TO.P,D81,2,A_2*%
%TO.N,Net-(D81-A)*%
X226500000Y-84380000D03*
%TD*%
D19*
%TO.P,D50,1,K_1*%
%TO.N,/ROW2*%
X335170000Y-55280000D03*
D16*
%TO.P,D50,2,A_2*%
%TO.N,Net-(D50-A)*%
X335170000Y-47660000D03*
%TD*%
D19*
%TO.P,D58,1,K_1*%
%TO.N,/ROW3*%
X74540000Y-73080000D03*
D16*
%TO.P,D58,2,A_2*%
%TO.N,Net-(D58-A)*%
X74540000Y-65460000D03*
%TD*%
D19*
%TO.P,D69,1,K_1*%
%TO.N,/ROW3*%
X416630000Y-73700000D03*
D16*
%TO.P,D69,2,A_2*%
%TO.N,Net-(D69-A)*%
X416630000Y-66080000D03*
%TD*%
D19*
%TO.P,D26,1,K_1*%
%TO.N,/ROW1*%
X188500000Y-35000000D03*
D16*
%TO.P,D26,2,A_2*%
%TO.N,Net-(D26-A)*%
X188500000Y-27380000D03*
%TD*%
D19*
%TO.P,D85,1,K_1*%
%TO.N,/ROW4*%
X416630000Y-92700000D03*
D16*
%TO.P,D85,2,A_2*%
%TO.N,Net-(D85-A)*%
X416630000Y-85080000D03*
%TD*%
D19*
%TO.P,D7,1,K_1*%
%TO.N,/ROW0*%
X132080000Y-16000000D03*
D16*
%TO.P,D7,2,A_2*%
%TO.N,Net-(D7-A)*%
X132080000Y-8380000D03*
%TD*%
D19*
%TO.P,D35,1,K_1*%
%TO.N,/ROW1*%
X435710000Y-35700000D03*
D16*
%TO.P,D35,2,A_2*%
%TO.N,Net-(D35-A)*%
X435710000Y-28080000D03*
%TD*%
D19*
%TO.P,D41,1,K_1*%
%TO.N,/ROW2*%
X112500000Y-54000000D03*
D16*
%TO.P,D41,2,A_2*%
%TO.N,Net-(D41-A)*%
X112500000Y-46380000D03*
%TD*%
D19*
%TO.P,D12,1,K_1*%
%TO.N,/ROW0*%
X227000000Y-16000000D03*
D16*
%TO.P,D12,2,A_2*%
%TO.N,Net-(D12-A)*%
X227000000Y-8380000D03*
%TD*%
D19*
%TO.P,D83,1,K_1*%
%TO.N,/ROW4*%
X335210000Y-93200000D03*
D16*
%TO.P,D83,2,A_2*%
%TO.N,Net-(D83-A)*%
X335210000Y-85580000D03*
%TD*%
D19*
%TO.P,D1,1,K_1*%
%TO.N,/ROW0*%
X17580000Y-16000000D03*
D16*
%TO.P,D1,2,A_2*%
%TO.N,Net-(D1-A)*%
X17580000Y-8380000D03*
%TD*%
D19*
%TO.P,D28,1,K_1*%
%TO.N,/ROW1*%
X226500000Y-35000000D03*
D16*
%TO.P,D28,2,A_2*%
%TO.N,Net-(D28-A)*%
X226500000Y-27380000D03*
%TD*%
D19*
%TO.P,D79,1,K_1*%
%TO.N,/ROW4*%
X188540000Y-92080000D03*
D16*
%TO.P,D79,2,A_2*%
%TO.N,Net-(D79-A)*%
X188540000Y-84460000D03*
%TD*%
D19*
%TO.P,D53,1,K_1*%
%TO.N,/ROW2*%
X416670000Y-54780000D03*
D16*
%TO.P,D53,2,A_2*%
%TO.N,Net-(D53-A)*%
X416670000Y-47160000D03*
%TD*%
D19*
%TO.P,D23,1,K_1*%
%TO.N,/ROW1*%
X131540000Y-35080000D03*
D16*
%TO.P,D23,2,A_2*%
%TO.N,Net-(D23-A)*%
X131540000Y-27460000D03*
%TD*%
D19*
%TO.P,D11,1,K_1*%
%TO.N,/ROW0*%
X208080000Y-16000000D03*
D16*
%TO.P,D11,2,A_2*%
%TO.N,Net-(D11-A)*%
X208080000Y-8380000D03*
%TD*%
D19*
%TO.P,D84,1,K_1*%
%TO.N,/ROW4*%
X397630000Y-92700000D03*
D16*
%TO.P,D84,2,A_2*%
%TO.N,Net-(D84-A)*%
X397630000Y-85080000D03*
%TD*%
D19*
%TO.P,D78,1,K_1*%
%TO.N,/ROW4*%
X169500000Y-92000000D03*
D16*
%TO.P,D78,2,A_2*%
%TO.N,Net-(D78-A)*%
X169500000Y-84380000D03*
%TD*%
D19*
%TO.P,D74,1,K_1*%
%TO.N,/ROW4*%
X93540000Y-92000000D03*
D16*
%TO.P,D74,2,A_2*%
%TO.N,Net-(D74-A)*%
X93540000Y-84380000D03*
%TD*%
D19*
%TO.P,D47,1,K_1*%
%TO.N,/ROW2*%
X226500000Y-54000000D03*
D16*
%TO.P,D47,2,A_2*%
%TO.N,Net-(D47-A)*%
X226500000Y-46380000D03*
%TD*%
D19*
%TO.P,D20,1,K_1*%
%TO.N,/ROW1*%
X74500000Y-35000000D03*
D16*
%TO.P,D20,2,A_2*%
%TO.N,Net-(D20-A)*%
X74500000Y-27380000D03*
%TD*%
D19*
%TO.P,D5,1,K_1*%
%TO.N,/ROW0*%
X94080000Y-16000000D03*
D16*
%TO.P,D5,2,A_2*%
%TO.N,Net-(D5-A)*%
X94080000Y-8380000D03*
%TD*%
D19*
%TO.P,D89,1,K_1*%
%TO.N,/ROW5*%
X120500000Y-111000000D03*
D16*
%TO.P,D89,2,A_2*%
%TO.N,Net-(D89-A)*%
X120500000Y-103380000D03*
%TD*%
D19*
%TO.P,D30,1,K_1*%
%TO.N,/ROW1*%
X316130000Y-36200000D03*
D16*
%TO.P,D30,2,A_2*%
%TO.N,Net-(D30-A)*%
X316130000Y-28580000D03*
%TD*%
D19*
%TO.P,D14,1,K_1*%
%TO.N,/ROW0*%
X316210000Y-17200000D03*
D16*
%TO.P,D14,2,A_2*%
%TO.N,Net-(D14-A)*%
X316210000Y-9580000D03*
%TD*%
D19*
%TO.P,D18,1,K_1*%
%TO.N,/ROW1*%
X36500000Y-35000000D03*
D16*
%TO.P,D18,2,A_2*%
%TO.N,Net-(D18-A)*%
X36500000Y-27380000D03*
%TD*%
D19*
%TO.P,D92,1,K_1*%
%TO.N,/ROW5*%
X226660000Y-111000000D03*
D16*
%TO.P,D92,2,A_2*%
%TO.N,Net-(D92-A)*%
X226660000Y-103380000D03*
%TD*%
D19*
%TO.P,D77,1,K_1*%
%TO.N,/ROW4*%
X150500000Y-92000000D03*
D16*
%TO.P,D77,2,A_2*%
%TO.N,Net-(D77-A)*%
X150500000Y-84380000D03*
%TD*%
D19*
%TO.P,D31,1,K_1*%
%TO.N,/ROW1*%
X335210000Y-36200000D03*
D16*
%TO.P,D31,2,A_2*%
%TO.N,Net-(D31-A)*%
X335210000Y-28580000D03*
%TD*%
D19*
%TO.P,D45,1,K_1*%
%TO.N,/ROW2*%
X188390000Y-54040000D03*
D16*
%TO.P,D45,2,A_2*%
%TO.N,Net-(D45-A)*%
X188390000Y-46420000D03*
%TD*%
D19*
%TO.P,D62,1,K_1*%
%TO.N,/ROW3*%
X150500000Y-73000000D03*
D16*
%TO.P,D62,2,A_2*%
%TO.N,Net-(D62-A)*%
X150500000Y-65380000D03*
%TD*%
D19*
%TO.P,D66,1,K_1*%
%TO.N,/ROW3*%
X226540000Y-73080000D03*
D16*
%TO.P,D66,2,A_2*%
%TO.N,Net-(D66-A)*%
X226540000Y-65460000D03*
%TD*%
D19*
%TO.P,D93,1,K_1*%
%TO.N,/ROW5*%
X245700000Y-110920000D03*
D16*
%TO.P,D93,2,A_2*%
%TO.N,Net-(D93-A)*%
X245700000Y-103300000D03*
%TD*%
D19*
%TO.P,D6,1,K_1*%
%TO.N,/ROW0*%
X113000000Y-16000000D03*
D16*
%TO.P,D6,2,A_2*%
%TO.N,Net-(D6-A)*%
X113000000Y-8380000D03*
%TD*%
D19*
%TO.P,D91,1,K_1*%
%TO.N,/ROW5*%
X207620000Y-110920000D03*
D16*
%TO.P,D91,2,A_2*%
%TO.N,Net-(D91-A)*%
X207620000Y-103300000D03*
%TD*%
D20*
%TO.N,/ROW5*%
X253500000Y-29800000D03*
X253100000Y-49500000D03*
X252700000Y-73700000D03*
X252300000Y-93900000D03*
X253100000Y-44700000D03*
X253500000Y-24500000D03*
X252300000Y-92500000D03*
X252700000Y-72300000D03*
%TO.N,/COL1*%
X251200000Y-25700000D03*
X262500000Y-21500000D03*
X27700000Y-72300000D03*
X27800000Y-15300000D03*
X27800000Y-53300000D03*
X27700000Y-73700000D03*
X27700000Y-35700000D03*
X250000000Y-24900000D03*
X27700000Y-92700000D03*
X27700000Y-91300000D03*
X27800000Y-16700000D03*
X27800000Y-54700000D03*
X27700000Y-34300000D03*
X32900000Y-21800000D03*
X32900000Y-23200000D03*
%TO.N,/ROW0*%
X327000000Y-21700000D03*
X236400000Y-16000000D03*
X294000000Y-15500000D03*
X346000000Y-17200000D03*
X198500000Y-16000000D03*
X325600000Y-21700000D03*
X292600000Y-15300000D03*
X199900000Y-16000000D03*
X237800000Y-16000000D03*
X344600000Y-17200000D03*
%TO.N,/COL12*%
X266100000Y-39900000D03*
X219700000Y-32900000D03*
X217800000Y-72300000D03*
X217800000Y-91400000D03*
X218100000Y-25000000D03*
X217800000Y-73700000D03*
X244900000Y-43300000D03*
X218100000Y-15300000D03*
X243500000Y-43300000D03*
X217800000Y-92800000D03*
X263399999Y-43500000D03*
X219700000Y-43200000D03*
X219300000Y-45800000D03*
X217700000Y-51900000D03*
X217700000Y-54700000D03*
%TO.N,/COL13*%
X236800000Y-53300000D03*
X236800000Y-34900000D03*
X236800000Y-32900000D03*
X236600000Y-40200000D03*
X237100000Y-21900000D03*
X236800000Y-51900000D03*
X237100000Y-25100000D03*
%TO.N,/COL5*%
X84800000Y-72400000D03*
X84700000Y-54700000D03*
X84800000Y-73800000D03*
X258899999Y-34200000D03*
X246200000Y-32400000D03*
X247600000Y-32400000D03*
X85200000Y-16700000D03*
X84700000Y-53300000D03*
X84600000Y-21800000D03*
X85200000Y-15300000D03*
%TO.N,/ROW2*%
X346100000Y-55300000D03*
X427600000Y-64200000D03*
X289100000Y-54100000D03*
X426200000Y-64200000D03*
X389500000Y-54700000D03*
X287700000Y-54100000D03*
X237300000Y-54200000D03*
X306700000Y-54100000D03*
X344700000Y-55300000D03*
X327100000Y-55300000D03*
X199300000Y-54200000D03*
X388100000Y-54700000D03*
X235900000Y-54200000D03*
X407200000Y-54800000D03*
X253800000Y-54100000D03*
X408600000Y-54800000D03*
X197900000Y-54200000D03*
X308100000Y-54100000D03*
X325700000Y-55300000D03*
%TO.N,/ROW3*%
X346100000Y-73000000D03*
X288400000Y-33500000D03*
X407100000Y-73700000D03*
X288400000Y-36000000D03*
X265200000Y-73000000D03*
X344700000Y-73000000D03*
X237500000Y-73100000D03*
X198000000Y-73100000D03*
X247600000Y-73000000D03*
X263800000Y-73000000D03*
X327100000Y-73000000D03*
X236100000Y-73100000D03*
X408500000Y-73700000D03*
X308100000Y-73000000D03*
X199400000Y-73100000D03*
X325700000Y-73000000D03*
X306700000Y-73000000D03*
%TO.N,/ROW4*%
X327100000Y-93200000D03*
X325700000Y-93200000D03*
X346100000Y-92700000D03*
X246800000Y-47500000D03*
X390800000Y-92700000D03*
X246800000Y-48900000D03*
X308100000Y-93200000D03*
X248700000Y-27200000D03*
X248700000Y-28600000D03*
X236100000Y-92000000D03*
X265200000Y-91800000D03*
X344700000Y-92700000D03*
X198100000Y-92100000D03*
X306700000Y-93200000D03*
X389400000Y-92700000D03*
X199500000Y-92100000D03*
X237500000Y-92000000D03*
X263800000Y-91800000D03*
%TO.N,/COL6*%
X262500000Y-36800000D03*
X103800000Y-72400000D03*
X103800000Y-73800000D03*
X248600000Y-29700000D03*
X104100000Y-25000000D03*
X103700000Y-53300000D03*
X247600000Y-28700000D03*
X105700000Y-37100000D03*
X105700000Y-34300000D03*
X103700000Y-54700000D03*
X104100000Y-15300000D03*
%TO.N,/COL7*%
X243500000Y-40900000D03*
X122700000Y-53300000D03*
X122700000Y-54700000D03*
X124600000Y-37100000D03*
X244900000Y-40900000D03*
X122800000Y-73800000D03*
X261500000Y-40500000D03*
X123200000Y-25000000D03*
X124600000Y-32900000D03*
X123200000Y-15300000D03*
X122800000Y-72400000D03*
%TO.N,/ROW1*%
X307900000Y-36600000D03*
X327000000Y-36200000D03*
X237300000Y-35700000D03*
X254200000Y-35100000D03*
X306500000Y-36600000D03*
X388100000Y-35700000D03*
X228100000Y-36500000D03*
X344500000Y-36200000D03*
X252800000Y-35100000D03*
X252700000Y-29800000D03*
X345900000Y-36200000D03*
X263000000Y-40600000D03*
X263100000Y-13800000D03*
X265300000Y-40500000D03*
X426200000Y-35700000D03*
X243500000Y-35100000D03*
X427600000Y-35700000D03*
X252700000Y-24500000D03*
X325600000Y-36200000D03*
X389500000Y-35700000D03*
X263100000Y-11800000D03*
X235900000Y-35700000D03*
D21*
%TO.N,/COL15*%
X294780000Y-4700000D03*
D20*
X295700000Y-5600000D03*
%TO.N,/COL8*%
X244900000Y-41700000D03*
X143700000Y-41600000D03*
X142200000Y-15300000D03*
X243500000Y-41700000D03*
X261500000Y-44400000D03*
X141700000Y-54700000D03*
X142200000Y-25000000D03*
X143700000Y-32900000D03*
X141700000Y-53300000D03*
X141700000Y-73800000D03*
X141700000Y-72400000D03*
%TO.N,/COL4*%
X65800000Y-72400000D03*
X65700000Y-35700000D03*
X65800000Y-73800000D03*
X65700000Y-15300000D03*
X65700000Y-16700000D03*
X249800000Y-27100000D03*
X99800000Y-91300000D03*
X69700000Y-21800000D03*
X69700000Y-24400000D03*
X65700000Y-34300000D03*
X65700000Y-53400000D03*
X260000000Y-27200000D03*
X99800000Y-92700000D03*
X65700000Y-54800000D03*
X248500000Y-26400000D03*
%TO.N,/COL11*%
X199200000Y-25000000D03*
X198600000Y-43200000D03*
X199200000Y-21800000D03*
X198700000Y-51900000D03*
X198600000Y-32900000D03*
X198700000Y-53300000D03*
%TO.N,/COL14*%
X307300000Y-16399999D03*
X307200000Y-35800000D03*
X307300000Y-15000000D03*
X307200000Y-34400000D03*
%TO.N,/COL0*%
X262500000Y-19000000D03*
X251800000Y-25100000D03*
X250800000Y-24100000D03*
%TO.N,/COL9*%
X244900000Y-42500000D03*
X161100000Y-15300000D03*
X260399999Y-47500000D03*
X160800000Y-54700000D03*
X162600000Y-42400000D03*
X160800000Y-73700000D03*
X160800000Y-72300000D03*
X162600000Y-32900000D03*
X259100000Y-46800000D03*
X160800000Y-53300000D03*
X243500000Y-42500000D03*
X161100000Y-25000000D03*
%TO.N,/COL3*%
X46700000Y-35700000D03*
X51300000Y-23800000D03*
X51300000Y-21800000D03*
X46800000Y-16700000D03*
X46800000Y-92700000D03*
X250500000Y-26400000D03*
X249300000Y-25600000D03*
X46700000Y-34300000D03*
X262500000Y-26400000D03*
X46800000Y-91300000D03*
X46800000Y-54800000D03*
X46800000Y-73700000D03*
X46800000Y-15300000D03*
X46800000Y-72300000D03*
X46800000Y-53400000D03*
%TO.N,/COL10*%
X181400000Y-54700000D03*
X246200000Y-51400000D03*
X179800000Y-91300000D03*
X179800000Y-72300000D03*
X179800000Y-73700000D03*
X265399999Y-49900000D03*
X180100000Y-15300000D03*
X181400000Y-53300000D03*
X179600000Y-43200000D03*
X264399999Y-48900000D03*
X179600000Y-32900000D03*
X247600000Y-51400000D03*
X180100000Y-25000000D03*
X179800000Y-92700000D03*
%TO.N,Net-(U1-VSS)*%
X261399999Y-36700000D03*
D22*
X293498455Y1031260D03*
D20*
X265800000Y-27400000D03*
X265800000Y-29200000D03*
X262399999Y-35700000D03*
X265800000Y-9900000D03*
X281000000Y-5700000D03*
X265800000Y-11900000D03*
D22*
%TO.N,Net-(A1-3V3)*%
X292157204Y431260D03*
%TO.N,Net-(A1-GPIO21)*%
X292655000Y-195000D03*
D20*
%TO.N,GND*%
X292100000Y-1800000D03*
X291100000Y-800000D03*
%TO.N,/COL17*%
X388900000Y-72300000D03*
X388900000Y-73700000D03*
%TO.N,/COL18*%
X405200000Y-54100000D03*
X405200000Y-55500000D03*
D22*
X298000000Y-2150000D03*
%TO.N,/COL19*%
X299000000Y-3150000D03*
D21*
X296230000Y-2750000D03*
%TD*%
%TO.N,/ROW5*%
D23*
X252300000Y-93900000D02*
X252300000Y-92500000D01*
X252700000Y-73700000D02*
X252700000Y-72300000D01*
X253500000Y-29800000D02*
X253500000Y-24500000D01*
X253100000Y-49500000D02*
X253100000Y-44700000D01*
%TO.N,/COL1*%
X250800000Y-25700000D02*
X250000000Y-24900000D01*
X27800000Y-53300000D02*
X27800000Y-54700000D01*
X251200000Y-25700000D02*
X250800000Y-25700000D01*
X27700000Y-72300000D02*
X27700000Y-73700000D01*
X27700000Y-91300000D02*
X27700000Y-92700000D01*
X27800000Y-16700000D02*
X27800000Y-15300000D01*
X32900000Y-23200000D02*
X32900000Y-21800000D01*
X264500000Y-21500000D02*
X262500000Y-21500000D01*
X27700000Y-34300000D02*
X27700000Y-35700000D01*
%TO.N,/ROW0*%
X344600000Y-17200000D02*
X346000000Y-17200000D01*
X325600000Y-21700000D02*
X327000000Y-21700000D01*
X237800000Y-16000000D02*
X236400000Y-16000000D01*
X199900000Y-16000000D02*
X198500000Y-16000000D01*
X292800000Y-15500000D02*
X292600000Y-15300000D01*
X294000000Y-15500000D02*
X292800000Y-15500000D01*
%TO.N,/COL12*%
X266100000Y-39900000D02*
X266100000Y-42400000D01*
X263800000Y-43100000D02*
X263399999Y-43500000D01*
X217700000Y-51900000D02*
X217700000Y-54700000D01*
X218100000Y-25000000D02*
X218100000Y-15300000D01*
X217800000Y-72300000D02*
X217800000Y-73700000D01*
X265399999Y-43100000D02*
X263800000Y-43100000D01*
X217800000Y-91400000D02*
X217800000Y-92800000D01*
X244900000Y-43300000D02*
X243500000Y-43300000D01*
X219300000Y-45800000D02*
X217600000Y-47500000D01*
X219700000Y-43200000D02*
X219700000Y-32900000D01*
X266100000Y-42400000D02*
X265399999Y-43100000D01*
%TO.N,/COL13*%
X237100000Y-25100000D02*
X237100000Y-21900000D01*
X236800000Y-51900000D02*
X236800000Y-53300000D01*
X236800000Y-32900000D02*
X236800000Y-34900000D01*
X236600000Y-40200000D02*
X236600000Y-47500000D01*
%TO.N,/COL5*%
X85200000Y-16700000D02*
X85200000Y-15300000D01*
X264500000Y-34200000D02*
X258899999Y-34200000D01*
X247600000Y-32400000D02*
X246200000Y-32400000D01*
X84700000Y-53300000D02*
X84700000Y-54700000D01*
X84600000Y-28500000D02*
X84600000Y-21800000D01*
X84800000Y-72400000D02*
X84800000Y-73800000D01*
%TO.N,/ROW2*%
X344700000Y-55300000D02*
X346100000Y-55300000D01*
X289100000Y-54100000D02*
X287700000Y-54100000D01*
X388100000Y-54700000D02*
X389500000Y-54700000D01*
X237300000Y-54200000D02*
X235900000Y-54200000D01*
X199300000Y-54200000D02*
X197900000Y-54200000D01*
X407200000Y-54800000D02*
X408600000Y-54800000D01*
X245500000Y-54100000D02*
X245540000Y-54080000D01*
X253800000Y-54100000D02*
X245500000Y-54100000D01*
X325700000Y-55300000D02*
X327100000Y-55300000D01*
X426200000Y-64200000D02*
X427600000Y-64200000D01*
X308100000Y-54100000D02*
X306700000Y-54100000D01*
%TO.N,/ROW3*%
X407100000Y-73700000D02*
X408500000Y-73700000D01*
X199400000Y-73100000D02*
X198000000Y-73100000D01*
X288400000Y-36000000D02*
X288400000Y-33500000D01*
X265200000Y-73000000D02*
X263800000Y-73000000D01*
X346100000Y-73000000D02*
X344700000Y-73000000D01*
X327100000Y-73000000D02*
X325700000Y-73000000D01*
X237500000Y-73100000D02*
X236100000Y-73100000D01*
X308100000Y-73000000D02*
X306700000Y-73000000D01*
X247600000Y-73000000D02*
X245500000Y-73000000D01*
%TO.N,/ROW4*%
X248700000Y-27200000D02*
X248700000Y-28600000D01*
X344700000Y-92700000D02*
X346100000Y-92700000D01*
X237500000Y-92000000D02*
X236100000Y-92000000D01*
X389400000Y-92700000D02*
X390800000Y-92700000D01*
X306700000Y-93200000D02*
X308100000Y-93200000D01*
X263800000Y-91800000D02*
X265200000Y-91800000D01*
X199500000Y-92100000D02*
X198100000Y-92100000D01*
X246800000Y-47500000D02*
X246800000Y-48900000D01*
X325700000Y-93200000D02*
X327100000Y-93200000D01*
%TO.N,/COL6*%
X248600000Y-29700000D02*
X247600000Y-28700000D01*
X103700000Y-53300000D02*
X103700000Y-54700000D01*
X105700000Y-34300000D02*
X105700000Y-37100000D01*
X103800000Y-72400000D02*
X103800000Y-73800000D01*
X104100000Y-25000000D02*
X104100000Y-15300000D01*
X264500000Y-36800000D02*
X262500000Y-36800000D01*
%TO.N,/COL7*%
X262700000Y-39300000D02*
X261500000Y-40500000D01*
X122800000Y-72400000D02*
X122800000Y-73800000D01*
X244900000Y-40900000D02*
X243500000Y-40900000D01*
X123200000Y-25000000D02*
X123200000Y-15300000D01*
X264500000Y-39300000D02*
X262700000Y-39300000D01*
X124600000Y-37100000D02*
X124600000Y-32900000D01*
X122700000Y-53300000D02*
X122700000Y-54700000D01*
%TO.N,/ROW1*%
X426200000Y-35700000D02*
X427600000Y-35700000D01*
X237300000Y-35700000D02*
X235900000Y-35700000D01*
X265300000Y-40500000D02*
X265000000Y-40500000D01*
X325600000Y-36200000D02*
X327000000Y-36200000D01*
X264899999Y-40600000D02*
X263000000Y-40600000D01*
X388100000Y-35700000D02*
X389500000Y-35700000D01*
X254200000Y-35100000D02*
X252800000Y-35100000D01*
X263100000Y-13800000D02*
X263100000Y-11800000D01*
X245500000Y-35100000D02*
X243500000Y-35100000D01*
X265000000Y-40500000D02*
X264899999Y-40600000D01*
X228100000Y-36500000D02*
X226600000Y-35000000D01*
X307900000Y-36600000D02*
X306500000Y-36600000D01*
X252700000Y-29800000D02*
X252700000Y-24500000D01*
X344500000Y-36200000D02*
X345900000Y-36200000D01*
%TO.N,/COL15*%
X295700000Y-5600000D02*
X294800000Y-4700000D01*
%TO.N,/COL8*%
X244900000Y-41700000D02*
X243500000Y-41700000D01*
X141700000Y-72400000D02*
X141700000Y-73800000D01*
X141700000Y-53300000D02*
X141700000Y-54700000D01*
X264500000Y-44400000D02*
X261500000Y-44400000D01*
X143700000Y-41600000D02*
X143700000Y-32900000D01*
X142200000Y-25000000D02*
X142200000Y-15300000D01*
%TO.N,/COL4*%
X249700000Y-27100000D02*
X249000000Y-26400000D01*
X65800000Y-72400000D02*
X65800000Y-73800000D01*
X65700000Y-53400000D02*
X65700000Y-54800000D01*
X264500000Y-31700000D02*
X260000000Y-27200000D01*
X99800000Y-91300000D02*
X99800000Y-92700000D01*
X69700000Y-24400000D02*
X69700000Y-21800000D01*
X249000000Y-26400000D02*
X248500000Y-26400000D01*
X65700000Y-16700000D02*
X65700000Y-15300000D01*
X65700000Y-34300000D02*
X65700000Y-35700000D01*
%TO.N,/COL11*%
X199200000Y-25000000D02*
X199200000Y-21800000D01*
X198700000Y-51900000D02*
X198700000Y-53300000D01*
X198600000Y-43200000D02*
X198600000Y-32900000D01*
%TO.N,/COL14*%
X307200000Y-35800000D02*
X307200000Y-34400000D01*
X307300000Y-16399999D02*
X307300000Y-15000000D01*
%TO.N,/COL0*%
X251800000Y-25100000D02*
X250800000Y-24100000D01*
X264500000Y-19000000D02*
X262500000Y-19000000D01*
%TO.N,/COL9*%
X259800000Y-47500000D02*
X259100000Y-46800000D01*
X160800000Y-72300000D02*
X160800000Y-73700000D01*
X244900000Y-42500000D02*
X243500000Y-42500000D01*
X161100000Y-25000000D02*
X161100000Y-15300000D01*
X160800000Y-53300000D02*
X160800000Y-54700000D01*
X260399999Y-47500000D02*
X259800000Y-47500000D01*
X162600000Y-42400000D02*
X162600000Y-32900000D01*
%TO.N,/COL3*%
X263700000Y-26600000D02*
X263500000Y-26400000D01*
X250500000Y-26400000D02*
X250100000Y-26400000D01*
X46800000Y-16700000D02*
X46800000Y-15300000D01*
X46800000Y-53400000D02*
X46800000Y-54800000D01*
X51300000Y-23800000D02*
X51300000Y-21800000D01*
X46800000Y-72300000D02*
X46800000Y-73700000D01*
X250100000Y-26400000D02*
X249300000Y-25600000D01*
X263500000Y-26400000D02*
X262500000Y-26400000D01*
X46800000Y-91300000D02*
X46800000Y-92700000D01*
X46700000Y-34300000D02*
X46700000Y-35700000D01*
X264500000Y-26600000D02*
X263700000Y-26600000D01*
%TO.N,/COL10*%
X181400000Y-53300000D02*
X181400000Y-54700000D01*
X179600000Y-43200000D02*
X179600000Y-32900000D01*
X179800000Y-72300000D02*
X179800000Y-73700000D01*
X179800000Y-91300000D02*
X179800000Y-92700000D01*
X265399999Y-49900000D02*
X264399999Y-48900000D01*
X180100000Y-25000000D02*
X180100000Y-15300000D01*
X247600000Y-51400000D02*
X246200000Y-51400000D01*
%TO.N,Net-(U1-VSS)*%
X281000000Y-5100000D02*
X282300000Y-3800000D01*
X265800000Y-9900000D02*
X265800000Y-11900000D01*
X265800000Y-27400000D02*
X265800000Y-29200000D01*
X282300000Y-3800000D02*
X282280000Y-3760000D01*
X264500000Y-29200000D02*
X264500000Y-28700000D01*
D24*
X293498455Y1031260D02*
X287071260Y1031260D01*
D23*
X261399999Y-36700000D02*
X262399999Y-35700000D01*
X265800000Y-11900000D02*
X265800000Y-9900000D01*
X281000000Y-5700000D02*
X281000000Y-5100000D01*
D24*
X287071260Y1031260D02*
X282280000Y-3760000D01*
D23*
X264500000Y-29160000D02*
X264500000Y-29200000D01*
X264500000Y-28700000D02*
X265800000Y-27400000D01*
%TO.N,Net-(A1-3V3)*%
D24*
X292157204Y431260D02*
X291551260Y431260D01*
X291551260Y431260D02*
X282280000Y-8840000D01*
%TO.N,Net-(A1-GPIO21)*%
X283385000Y-30595000D02*
X282280000Y-31700000D01*
X292655000Y-14359365D02*
X283385000Y-23629365D01*
X292655000Y-195000D02*
X292655000Y-14359365D01*
X283385000Y-23629365D02*
X283385000Y-30595000D01*
%TO.N,GND*%
D23*
X291100000Y-800000D02*
X292100000Y-1800000D01*
%TO.N,/COL17*%
X388900000Y-72300000D02*
X388900000Y-73700000D01*
%TO.N,/COL18*%
D24*
X298000000Y-2150000D02*
X380810000Y-2150000D01*
D23*
X405200000Y-55500000D02*
X405200000Y-54100000D01*
D24*
X380810000Y-2150000D02*
X407820000Y-29160000D01*
%TO.N,/COL19*%
X298600000Y-2750000D02*
X299000000Y-3150000D01*
X296230000Y-2750000D02*
X298600000Y-2750000D01*
%TD*%
M02*
