%TF.GenerationSoftware,KiCad,Pcbnew,10.0.3*%
%TF.CreationDate,2026-07-15T16:20:44+05:30*%
%TF.ProjectId,macropad,6d616372-6f70-4616-942e-6b696361645f,rev?*%
%TF.SameCoordinates,Original*%
%TF.FileFunction,Copper,L2,Bot*%
%TF.FilePolarity,Positive*%
%FSLAX46Y46*%
G04 Gerber Fmt 4.6, Leading zero omitted, Abs format (unit mm)*
G04 Created by KiCad (PCBNEW 10.0.3) date 2026-07-15 16:20:44*
%MOMM*%
%LPD*%
G01*
G04 APERTURE LIST*
G04 Aperture macros list*
%AMRoundRect*
0 Rectangle with rounded corners*
0 $1 Rounding radius*
0 $2 $3 $4 $5 $6 $7 $8 $9 X,Y pos of 4 corners*
0 Add a 4 corners polygon primitive as box body*
4,1,4,$2,$3,$4,$5,$6,$7,$8,$9,$2,$3,0*
0 Add four circle primitives for the rounded corners*
1,1,$1+$1,$2,$3*
1,1,$1+$1,$4,$5*
1,1,$1+$1,$6,$7*
1,1,$1+$1,$8,$9*
0 Add four rect primitives between the rounded corners*
20,1,$1+$1,$2,$3,$4,$5,0*
20,1,$1+$1,$4,$5,$6,$7,0*
20,1,$1+$1,$6,$7,$8,$9,0*
20,1,$1+$1,$8,$9,$2,$3,0*%
G04 Aperture macros list end*
%TA.AperFunction,ComponentPad*%
%ADD10C,2.200000*%
%TD*%
%TA.AperFunction,ComponentPad*%
%ADD11R,2.000000X2.000000*%
%TD*%
%TA.AperFunction,ComponentPad*%
%ADD12C,2.000000*%
%TD*%
%TA.AperFunction,ComponentPad*%
%ADD13R,3.200000X2.000000*%
%TD*%
%TA.AperFunction,ComponentPad*%
%ADD14RoundRect,0.170000X0.680000X-0.680000X0.680000X0.680000X-0.680000X0.680000X-0.680000X-0.680000X0*%
%TD*%
%TA.AperFunction,ComponentPad*%
%ADD15C,1.700000*%
%TD*%
%TA.AperFunction,ComponentPad*%
%ADD16R,3.500000X1.700000*%
%TD*%
%TA.AperFunction,ComponentPad*%
%ADD17O,3.600000X1.700000*%
%TD*%
%TA.AperFunction,ComponentPad*%
%ADD18O,3.700000X1.700000*%
%TD*%
%TA.AperFunction,ViaPad*%
%ADD19C,0.500000*%
%TD*%
%TA.AperFunction,Conductor*%
%ADD20C,0.300000*%
%TD*%
G04 APERTURE END LIST*
D10*
%TO.P,SW3,1,1_1*%
%TO.N,Net-(U1-PA5_A9_D9_MISO)*%
X155384500Y-114287985D03*
%TO.P,SW3,2,2_2*%
%TO.N,GND*%
X149034500Y-116827985D03*
%TD*%
%TO.P,SW4,1,1_1*%
%TO.N,Net-(U1-PA7_A8_D8_SCK)*%
X136304500Y-95287985D03*
%TO.P,SW4,2,2_2*%
%TO.N,GND*%
X129954500Y-97827985D03*
%TD*%
%TO.P,SW2,1,1_1*%
%TO.N,Net-(U1-PA6_A10_D10_MOSI)*%
X136304500Y-114287985D03*
%TO.P,SW2,2,2_2*%
%TO.N,GND*%
X129954500Y-116827985D03*
%TD*%
%TO.P,SW1,1,1_1*%
%TO.N,Net-(U1-PB09_A7_D7_RX)*%
X155620000Y-95420000D03*
%TO.P,SW1,2,2_2*%
%TO.N,GND*%
X149270000Y-97960000D03*
%TD*%
D11*
%TO.P,SW5,A,A_A*%
%TO.N,Net-(U1-PA4_A1_D1)*%
X98025000Y-110125000D03*
D12*
%TO.P,SW5,B,B_B*%
%TO.N,Net-(U1-PA10_A2_D2)*%
X98025000Y-115125000D03*
%TO.P,SW5,C,C_C*%
%TO.N,GND*%
X98025000Y-112625000D03*
D13*
%TO.P,SW5,MP*%
%TO.N,N/C*%
X105525000Y-107025000D03*
X105525000Y-118225000D03*
D12*
%TO.P,SW5,S1*%
X112525000Y-115125000D03*
%TO.P,SW5,S2*%
X112525000Y-110125000D03*
%TD*%
D14*
%TO.P,U2,1,GND_1*%
%TO.N,GND*%
X125264500Y-86677985D03*
D15*
%TO.P,U2,2,VCC_2*%
%TO.N,Net-(U1-3V3)*%
X125264500Y-84137985D03*
%TO.P,U2,3,SCL_3*%
%TO.N,Net-(U1-PA9_A5_D5_SCL)*%
X125264500Y-81597985D03*
%TO.P,U2,4,SDA_4*%
%TO.N,Net-(U1-PA8_A4_D4_SDA)*%
X125264500Y-79057985D03*
%TD*%
D16*
%TO.P,U1,1,PA02_A0_D0_1*%
%TO.N,unconnected-(U1-PA02_A0_D0-Pad1)*%
X115125000Y-76960000D03*
D17*
%TO.P,U1,2,PA4_A1_D1_2*%
%TO.N,Net-(U1-PA4_A1_D1)*%
X115125000Y-79500000D03*
%TO.P,U1,3,PA10_A2_D2_3*%
%TO.N,Net-(U1-PA10_A2_D2)*%
X115125000Y-82040000D03*
%TO.P,U1,4,PA11_A3_D3_4*%
%TO.N,unconnected-(U1-PA11_A3_D3-Pad4)*%
X115125000Y-84580000D03*
%TO.P,U1,5,PA8_A4_D4_SDA_5*%
%TO.N,Net-(U1-PA8_A4_D4_SDA)*%
X115125000Y-87120000D03*
%TO.P,U1,6,PA9_A5_D5_SCL_6*%
%TO.N,Net-(U1-PA9_A5_D5_SCL)*%
X115125000Y-89660000D03*
%TO.P,U1,7,PB08_A6_D6_TX_7*%
%TO.N,unconnected-(U1-PB08_A6_D6_TX-Pad7)*%
X115125000Y-92200000D03*
%TO.P,U1,8,PB09_A7_D7_RX_8*%
%TO.N,Net-(U1-PB09_A7_D7_RX)*%
X97875000Y-92200000D03*
%TO.P,U1,9,PA7_A8_D8_SCK_9*%
%TO.N,Net-(U1-PA7_A8_D8_SCK)*%
X97875000Y-89660000D03*
%TO.P,U1,10,PA5_A9_D9_MISO_10*%
%TO.N,Net-(U1-PA5_A9_D9_MISO)*%
X97875000Y-87120000D03*
D18*
%TO.P,U1,11,PA6_A10_D10_MOSI_11*%
%TO.N,Net-(U1-PA6_A10_D10_MOSI)*%
X97875000Y-84580000D03*
%TO.P,U1,12,3V3_12*%
%TO.N,Net-(U1-3V3)*%
X97875000Y-82040000D03*
%TO.P,U1,13,GND_13*%
%TO.N,GND*%
X97875000Y-79500000D03*
%TO.P,U1,14,5V_14*%
%TO.N,unconnected-(U1-5V-Pad14)*%
X97875000Y-76960000D03*
%TD*%
D19*
%TO.N,Net-(U1-PA5_A9_D9_MISO)*%
X111700000Y-91600000D03*
X115800000Y-97000000D03*
%TO.N,GND*%
X118100000Y-92100000D03*
X115600000Y-93600000D03*
X134900000Y-111900000D03*
X119100000Y-93100000D03*
%TO.N,Net-(U1-PA7_A8_D8_SCK)*%
X113100000Y-94000000D03*
X115800000Y-95400000D03*
%TO.N,Net-(U1-PA6_A10_D10_MOSI)*%
X115800000Y-96200000D03*
X112500000Y-94600000D03*
%TO.N,Net-(U1-PB09_A7_D7_RX)*%
X94900000Y-92200000D03*
%TO.N,Net-(U1-PA10_A2_D2)*%
X119500000Y-88400000D03*
X117200000Y-86100000D03*
%TD*%
%TO.N,Net-(U1-PA5_A9_D9_MISO)*%
D20*
X113800000Y-97000000D02*
X115800000Y-97000000D01*
X111700000Y-91600000D02*
X111700000Y-94900000D01*
X111700000Y-94900000D02*
X113800000Y-97000000D01*
%TO.N,GND*%
X116600000Y-93600000D02*
X115600000Y-93600000D01*
X118100000Y-92100000D02*
X116600000Y-93600000D01*
X118100000Y-92100000D02*
X119100000Y-93100000D01*
X134900000Y-111900000D02*
X130000000Y-116800000D01*
%TO.N,Net-(U1-PA7_A8_D8_SCK)*%
X114500000Y-95400000D02*
X113100000Y-94000000D01*
X115800000Y-95400000D02*
X114500000Y-95400000D01*
%TO.N,Net-(U1-PA6_A10_D10_MOSI)*%
X114100000Y-96200000D02*
X112500000Y-94600000D01*
X115800000Y-96200000D02*
X114100000Y-96200000D01*
%TO.N,Net-(U1-PB09_A7_D7_RX)*%
X94900000Y-92200000D02*
X97900000Y-92200000D01*
%TO.N,Net-(U1-PA10_A2_D2)*%
X119500000Y-88400000D02*
X117200000Y-86100000D01*
%TD*%
M02*
