%TF.GenerationSoftware,KiCad,Pcbnew,10.0.3*%
%TF.CreationDate,2026-07-15T16:20:44+05:30*%
%TF.ProjectId,macropad,6d616372-6f70-4616-942e-6b696361645f,rev?*%
%TF.SameCoordinates,Original*%
%TF.FileFunction,Copper,L1,Top*%
%TF.FilePolarity,Positive*%
%FSLAX46Y46*%
G04 Gerber Fmt 4.6, Leading zero omitted, Abs format (unit mm)*
G04 Created by KiCad (PCBNEW 10.0.3) date 2026-07-15 16:20:44*
%MOMM*%
%LPD*%
G01*
G04 APERTURE LIST*
G04 Aperture macros list*
%AMRoundRect*
0 Rectangle with rounded corners*
0 $1 Rounding radius*
0 $2 $3 $4 $5 $6 $7 $8 $9 X,Y pos of 4 corners*
0 Add a 4 corners polygon primitive as box body*
4,1,4,$2,$3,$4,$5,$6,$7,$8,$9,$2,$3,0*
0 Add four circle primitives for the rounded corners*
1,1,$1+$1,$2,$3*
1,1,$1+$1,$4,$5*
1,1,$1+$1,$6,$7*
1,1,$1+$1,$8,$9*
0 Add four rect primitives between the rounded corners*
20,1,$1+$1,$2,$3,$4,$5,0*
20,1,$1+$1,$4,$5,$6,$7,0*
20,1,$1+$1,$6,$7,$8,$9,0*
20,1,$1+$1,$8,$9,$2,$3,0*%
G04 Aperture macros list end*
%TA.AperFunction,ComponentPad*%
%ADD10C,2.200000*%
%TD*%
%TA.AperFunction,ComponentPad*%
%ADD11R,2.000000X2.000000*%
%TD*%
%TA.AperFunction,ComponentPad*%
%ADD12C,2.000000*%
%TD*%
%TA.AperFunction,ComponentPad*%
%ADD13R,3.200000X2.000000*%
%TD*%
%TA.AperFunction,ComponentPad*%
%ADD14RoundRect,0.170000X0.680000X-0.680000X0.680000X0.680000X-0.680000X0.680000X-0.680000X-0.680000X0*%
%TD*%
%TA.AperFunction,ComponentPad*%
%ADD15C,1.700000*%
%TD*%
%TA.AperFunction,ComponentPad*%
%ADD16R,3.500000X1.700000*%
%TD*%
%TA.AperFunction,ComponentPad*%
%ADD17O,3.600000X1.700000*%
%TD*%
%TA.AperFunction,ComponentPad*%
%ADD18O,3.700000X1.700000*%
%TD*%
%TA.AperFunction,ViaPad*%
%ADD19C,0.500000*%
%TD*%
%TA.AperFunction,Conductor*%
%ADD20C,0.300000*%
%TD*%
G04 APERTURE END LIST*
D10*
%TO.P,SW3,1,1_1*%
%TO.N,Net-(U1-PA5_A9_D9_MISO)*%
X155384500Y-114287985D03*
%TO.P,SW3,2,2_2*%
%TO.N,GND*%
X149034500Y-116827985D03*
%TD*%
%TO.P,SW4,1,1_1*%
%TO.N,Net-(U1-PA7_A8_D8_SCK)*%
X136304500Y-95287985D03*
%TO.P,SW4,2,2_2*%
%TO.N,GND*%
X129954500Y-97827985D03*
%TD*%
%TO.P,SW2,1,1_1*%
%TO.N,Net-(U1-PA6_A10_D10_MOSI)*%
X136304500Y-114287985D03*
%TO.P,SW2,2,2_2*%
%TO.N,GND*%
X129954500Y-116827985D03*
%TD*%
%TO.P,SW1,1,1_1*%
%TO.N,Net-(U1-PB09_A7_D7_RX)*%
X155620000Y-95420000D03*
%TO.P,SW1,2,2_2*%
%TO.N,GND*%
X149270000Y-97960000D03*
%TD*%
D11*
%TO.P,SW5,A,A_A*%
%TO.N,Net-(U1-PA4_A1_D1)*%
X98025000Y-110125000D03*
D12*
%TO.P,SW5,B,B_B*%
%TO.N,Net-(U1-PA10_A2_D2)*%
X98025000Y-115125000D03*
%TO.P,SW5,C,C_C*%
%TO.N,GND*%
X98025000Y-112625000D03*
D13*
%TO.P,SW5,MP*%
%TO.N,N/C*%
X105525000Y-107025000D03*
X105525000Y-118225000D03*
D12*
%TO.P,SW5,S1*%
X112525000Y-115125000D03*
%TO.P,SW5,S2*%
X112525000Y-110125000D03*
%TD*%
D14*
%TO.P,U2,1,GND_1*%
%TO.N,GND*%
X125264500Y-86677985D03*
D15*
%TO.P,U2,2,VCC_2*%
%TO.N,Net-(U1-3V3)*%
X125264500Y-84137985D03*
%TO.P,U2,3,SCL_3*%
%TO.N,Net-(U1-PA9_A5_D5_SCL)*%
X125264500Y-81597985D03*
%TO.P,U2,4,SDA_4*%
%TO.N,Net-(U1-PA8_A4_D4_SDA)*%
X125264500Y-79057985D03*
%TD*%
D16*
%TO.P,U1,1,PA02_A0_D0_1*%
%TO.N,unconnected-(U1-PA02_A0_D0-Pad1)*%
X115125000Y-76960000D03*
D17*
%TO.P,U1,2,PA4_A1_D1_2*%
%TO.N,Net-(U1-PA4_A1_D1)*%
X115125000Y-79500000D03*
%TO.P,U1,3,PA10_A2_D2_3*%
%TO.N,Net-(U1-PA10_A2_D2)*%
X115125000Y-82040000D03*
%TO.P,U1,4,PA11_A3_D3_4*%
%TO.N,unconnected-(U1-PA11_A3_D3-Pad4)*%
X115125000Y-84580000D03*
%TO.P,U1,5,PA8_A4_D4_SDA_5*%
%TO.N,Net-(U1-PA8_A4_D4_SDA)*%
X115125000Y-87120000D03*
%TO.P,U1,6,PA9_A5_D5_SCL_6*%
%TO.N,Net-(U1-PA9_A5_D5_SCL)*%
X115125000Y-89660000D03*
%TO.P,U1,7,PB08_A6_D6_TX_7*%
%TO.N,unconnected-(U1-PB08_A6_D6_TX-Pad7)*%
X115125000Y-92200000D03*
%TO.P,U1,8,PB09_A7_D7_RX_8*%
%TO.N,Net-(U1-PB09_A7_D7_RX)*%
X97875000Y-92200000D03*
%TO.P,U1,9,PA7_A8_D8_SCK_9*%
%TO.N,Net-(U1-PA7_A8_D8_SCK)*%
X97875000Y-89660000D03*
%TO.P,U1,10,PA5_A9_D9_MISO_10*%
%TO.N,Net-(U1-PA5_A9_D9_MISO)*%
X97875000Y-87120000D03*
D18*
%TO.P,U1,11,PA6_A10_D10_MOSI_11*%
%TO.N,Net-(U1-PA6_A10_D10_MOSI)*%
X97875000Y-84580000D03*
%TO.P,U1,12,3V3_12*%
%TO.N,Net-(U1-3V3)*%
X97875000Y-82040000D03*
%TO.P,U1,13,GND_13*%
%TO.N,GND*%
X97875000Y-79500000D03*
%TO.P,U1,14,5V_14*%
%TO.N,unconnected-(U1-5V-Pad14)*%
X97875000Y-76960000D03*
%TD*%
D19*
%TO.N,Net-(U1-PA5_A9_D9_MISO)*%
X111700000Y-91600000D03*
X115800000Y-97000000D03*
%TO.N,GND*%
X118100000Y-92100000D03*
X115600000Y-93600000D03*
X134900000Y-111900000D03*
X119100000Y-93100000D03*
%TO.N,Net-(U1-PA7_A8_D8_SCK)*%
X113100000Y-94000000D03*
X115800000Y-95400000D03*
%TO.N,Net-(U1-PA6_A10_D10_MOSI)*%
X115800000Y-96200000D03*
X112500000Y-94600000D03*
%TO.N,Net-(U1-PB09_A7_D7_RX)*%
X94900000Y-92200000D03*
%TO.N,Net-(U1-PA10_A2_D2)*%
X119500000Y-88400000D03*
X117200000Y-86100000D03*
%TD*%
%TO.N,Net-(U1-PA5_A9_D9_MISO)*%
D20*
X99200000Y-88400000D02*
X111500000Y-88400000D01*
X147700000Y-115900000D02*
X149300000Y-114300000D01*
X115800000Y-97000000D02*
X133100000Y-114300000D01*
X133100000Y-114300000D02*
X134100000Y-114300000D01*
X149300000Y-114300000D02*
X155400000Y-114300000D01*
X97900000Y-87100000D02*
X99200000Y-88400000D01*
X135600000Y-115800000D02*
X135900000Y-115800000D01*
X134100000Y-114300000D02*
X135600000Y-115800000D01*
X111500000Y-88400000D02*
X111700000Y-88600000D01*
X111700000Y-88600000D02*
X111700000Y-91600000D01*
X135900000Y-115800000D02*
X136000000Y-115900000D01*
X136000000Y-115900000D02*
X147700000Y-115900000D01*
%TO.N,GND*%
X125300000Y-86700000D02*
X122900000Y-89100000D01*
X127200000Y-84800000D02*
X125300000Y-86700000D01*
X104100000Y-75000000D02*
X117300000Y-75000000D01*
X127200000Y-78300000D02*
X127200000Y-84800000D01*
X118300000Y-92100000D02*
X118100000Y-92100000D01*
X147900000Y-116500000D02*
X148300000Y-116100000D01*
X119100000Y-93100000D02*
X123800000Y-97800000D01*
X98700000Y-80300000D02*
X98800000Y-80300000D01*
X98800000Y-80300000D02*
X104100000Y-75000000D01*
X133199999Y-97900000D02*
X149200000Y-97900000D01*
X130300000Y-116500000D02*
X147900000Y-116500000D01*
X121300000Y-89100000D02*
X118300000Y-92100000D01*
X99500000Y-109700000D02*
X99500000Y-111300000D01*
X99500000Y-111300000D02*
X98200000Y-112600000D01*
X126000000Y-77100000D02*
X127200000Y-78300000D01*
X130000000Y-98000000D02*
X133100000Y-98000000D01*
X133100000Y-98000000D02*
X133199999Y-97900000D01*
X130000000Y-107000000D02*
X134900000Y-111900000D01*
X122900000Y-89100000D02*
X121300000Y-89100000D01*
X115600000Y-93600000D02*
X99500000Y-109700000D01*
X123800000Y-97800000D02*
X130000000Y-97800000D01*
X148300000Y-116100000D02*
X149000000Y-116800000D01*
X97900000Y-79500000D02*
X98700000Y-80300000D01*
X117300000Y-75000000D02*
X119400000Y-77100000D01*
X130000000Y-97800000D02*
X130000000Y-107000000D01*
X119400000Y-77100000D02*
X126000000Y-77100000D01*
%TO.N,Net-(U1-PA7_A8_D8_SCK)*%
X130699999Y-89700000D02*
X121500000Y-89700000D01*
X121500000Y-89700000D02*
X115800000Y-95400000D01*
X113100000Y-94000000D02*
X108800000Y-89700000D01*
X136300000Y-95300000D02*
X130699999Y-89700000D01*
X108800000Y-89700000D02*
X97900000Y-89700000D01*
%TO.N,Net-(U1-PA6_A10_D10_MOSI)*%
X99400000Y-93500000D02*
X96300000Y-93500000D01*
X117200000Y-95200000D02*
X117100000Y-95200000D01*
X117100000Y-95200000D02*
X116100000Y-96200000D01*
X116100000Y-96200000D02*
X115800000Y-96200000D01*
X95600000Y-86600000D02*
X97600000Y-84600000D01*
X96300000Y-93500000D02*
X95600000Y-92800000D01*
X112500000Y-94600000D02*
X108200000Y-90300000D01*
X108200000Y-90300000D02*
X102600000Y-90300000D01*
X136300000Y-114300000D02*
X117200000Y-95200000D01*
X95600000Y-92800000D02*
X95600000Y-86600000D01*
X102600000Y-90300000D02*
X99400000Y-93500000D01*
%TO.N,Net-(U1-PB09_A7_D7_RX)*%
X126200000Y-76500000D02*
X119600000Y-76500000D01*
X95000000Y-86400000D02*
X95000000Y-92100000D01*
X97500000Y-74400000D02*
X95600000Y-76300000D01*
X95000000Y-92100000D02*
X94900000Y-92200000D01*
X155600000Y-95400000D02*
X152400000Y-92200000D01*
X95600000Y-76300000D02*
X95600000Y-76700000D01*
X95600000Y-76700000D02*
X95500000Y-76800000D01*
X141900000Y-92200000D02*
X126200000Y-76500000D01*
X95500000Y-85900000D02*
X95000000Y-86400000D01*
X117500000Y-74400000D02*
X97500000Y-74400000D01*
X152400000Y-92200000D02*
X141900000Y-92200000D01*
X119600000Y-76500000D02*
X117500000Y-74400000D01*
X95500000Y-76800000D02*
X95500000Y-85900000D01*
%TO.N,Net-(U1-3V3)*%
X119200000Y-77700000D02*
X117100000Y-75600000D01*
X99900000Y-80400000D02*
X98300000Y-82000000D01*
X100200000Y-80000000D02*
X99900000Y-80300000D01*
X125500000Y-77700000D02*
X119200000Y-77700000D01*
X100200000Y-79700000D02*
X100200000Y-80000000D01*
X125300000Y-84100000D02*
X125300000Y-83500000D01*
X125900000Y-77800000D02*
X125600000Y-77800000D01*
X117100000Y-75600000D02*
X104300000Y-75600000D01*
X125600000Y-77800000D02*
X125500000Y-77700000D01*
X99900000Y-80300000D02*
X99900000Y-80400000D01*
X126600000Y-82200000D02*
X126600000Y-78500000D01*
X104300000Y-75600000D02*
X100200000Y-79700000D01*
X126600000Y-78500000D02*
X125900000Y-77800000D01*
X125300000Y-83500000D02*
X126600000Y-82200000D01*
%TO.N,Net-(U1-PA9_A5_D5_SCL)*%
X125300000Y-81600000D02*
X117200000Y-89700000D01*
X117200000Y-89700000D02*
X115100000Y-89700000D01*
%TO.N,Net-(U1-PA8_A4_D4_SDA)*%
X117300000Y-87100000D02*
X115100000Y-87100000D01*
X125300000Y-79100000D02*
X117300000Y-87100000D01*
%TO.N,Net-(U1-PA10_A2_D2)*%
X117200000Y-86100000D02*
X116800000Y-85700000D01*
X117200000Y-83800000D02*
X115400000Y-82000000D01*
X107300000Y-108500000D02*
X115100000Y-100700000D01*
X98000000Y-115100000D02*
X104600000Y-108500000D01*
X115100000Y-100700000D02*
X115100000Y-95100000D01*
X115100000Y-95100000D02*
X117400000Y-92800000D01*
X116800000Y-85700000D02*
X117400000Y-85100000D01*
X117200000Y-83900000D02*
X117200000Y-83800000D01*
X117400000Y-84100000D02*
X117200000Y-83900000D01*
X117400000Y-85100000D02*
X117400000Y-84100000D01*
X117400000Y-90500000D02*
X119500000Y-88400000D01*
X117400000Y-92800000D02*
X117400000Y-90500000D01*
X104600000Y-108500000D02*
X107300000Y-108500000D01*
%TO.N,Net-(U1-PA4_A1_D1)*%
X112800000Y-81600000D02*
X113100000Y-81300000D01*
X112900000Y-92500000D02*
X112800000Y-92400000D01*
X112800000Y-92400000D02*
X112800000Y-81600000D01*
X113100000Y-81300000D02*
X113100000Y-81200000D01*
X113100000Y-81200000D02*
X114800000Y-79500000D01*
X98000000Y-110100000D02*
X114100000Y-94000000D01*
X114100000Y-94000000D02*
X112900000Y-92800000D01*
X112900000Y-92800000D02*
X112900000Y-92500000D01*
%TD*%
M02*
